<?xml version="1.0" encoding="UTF-8"?><svg id="Layer_2" xmlns="http://www.w3.org/2000/svg" viewBox="0 0 1934.76 1093.38"><defs><style>.cls-1{fill:none;}.cls-2{fill:#630038;}.cls-3{fill:#7a0029;}.cls-4{fill:#7d001c;}.cls-5{fill:#820030;}.cls-6{fill:#80003b;}.cls-7{fill:#3b0029;}.cls-8{fill:#4f0033;}.cls-9{fill:#872046;}</style></defs><g id="Layer_1-2"><rect class="cls-9" x="0" y="0" width="1934.75" height="1093.38"/><path class="cls-5" d="M1908.46,316.28h-.03c-40.58,0-78.51,13.77-116.71,30.07-.06.03-.12.05-.18.08-.08.04-.17.07-.25.1-.24.1-.47.2-.71.3-.22.09-.45.19-.67.29-.11.05-.22.09-.33.14-33.61,14.38-69.17,21.71-103.07,35.69-.21.09-.42.17-.64.26-7.96,3.15-16.16,4.04-24.5,4.04h-.04c-4.74,0-9.53-.28-14.34-.6-.07,0-.14,0-.2-.01-.17-.01-.34-.02-.51-.03-.3-.02-.6-.04-.9-.06-.29-.02-.57-.04-.86-.06-.29-.02-.59-.04-.88-.06-.01,0-.02,0-.03,0-4.77-.31-9.56-.59-14.35-.59h-.04c-4.83,0-9.66.28-14.47,1.11-35.42,6.01-70.56,13.86-105.89,20.33-.1.07-.21.15-.31.22,0,0-.01,0-.02.01,0,0-.02.01-.03.02-.07.05-.13.09-.19.14-9.1,6.29-19.01,8.68-29.22,8.68h-.05c-1.86,0-3.74-.08-5.62-.23-.03,0-.05,0-.08,0-.11,0-.21-.02-.32-.03-51.63-4.33-103.94-2.69-154.54-16.34-18.39-4.96-36.44-8.27-54.27-8.27h-.04c-19.58,0-38.9,3.99-58.13,14.13-.06.03-.13.07-.19.1-.04.02-.08.04-.12.06-.17.09-.35.18-.52.28-.34.17-.67.34-1.01.51-.67.34-1.35.68-2.02,1.02-.05.03-.1.05-.16.08-52.58,26.39-105.72,49.25-163.93,49.25h-.03c-5.19,0-10.41-.18-15.68-.56-3.03-.22-6.05-.32-9.06-.32h-.03c-30.05,0-58.61,10.65-85.64,26.09-.3.17-.6.34-.9.52,0,0,0,0,0,0-.24.14-.47.27-.71.41-.05.03-.1.06-.15.09-.09.05-.18.11-.28.16-11.72,6.82-23.31,12.08-35.66,12.08h-.04c-5.05,0-10.23-.88-15.59-2.89-.18-.07-.35-.13-.53-.2-11.07-4.3-22.14-5.79-33.2-5.79h-.04c-12.97,0-25.93,2.05-38.89,4-10.38,1.56-20.74,3.06-31.11,3.4-.27,0-.54.02-.8.02-37.46.98-74.73,9.61-112.21,13.16-11.05,1.06-22.67,1.16-32.11,6.45-.08.04-.15.08-.22.12-26.54,14.83-53.55,19.34-80.8,19.34h-.02c-24.11,0-48.4-3.52-72.73-6.53-.14-.02-.28-.03-.41-.05-.1-.01-.2-.03-.3-.04-.59-.07-1.18-.15-1.77-.22-.12-.01-.25-.03-.38-.05-.04,0-.07,0-.1-.01-.15-.02-.31-.04-.46-.06-.29-.04-.59-.07-.88-.11-.36-.04-.72-.09-1.08-.13-.35-.04-.7-.08-1.05-.12-11.95-1.4-23.9-2.17-35.8-2.17h-.03c-23.02,0-45.93,2.88-68.58,9.65-.17.05-.35.1-.52.16,1.33.71,2.66,1.46,3.98,2.22,0,0,0,0,0,0,.02.01.04.03.07.04.03.01.05.03.08.05,0,0,0,0,.01,0,2.88,1.66,5.76,3.35,8.74,4.69t0,0c.17.08.34.15.51.23,0,0,.01,0,.02,0,.03.01.06.03.09.04,0,0,.01,0,.02,0,.03.01.06.03.09.04,0,0,.01,0,.02,0,.1.04.19.08.29.12,0,0,0,0,.01,0,.03.01.05.02.08.03.01,0,.02.01.04.01.02.01.05.02.07.03.01,0,.03.01.04.02.02.01.05.02.08.03.01,0,.02,0,.03.01.09.04.17.07.26.1l.04.02s.04.02.07.03c.02,0,.03.01.05.02.02,0,.04.02.07.03.02,0,.04.01.05.02.02,0,.04.02.06.02.02,0,.04.01.06.02.02,0,.04.01.06.02.03.01.05.02.08.03.02,0,.05.02.07.03.03,0,.05.02.07.03.02,0,.04.01.05.02.02,0,.04.02.07.02.02,0,.03.01.05.02.02,0,.04.02.07.03.02,0,.03.01.05.02.03,0,.05.02.08.03.01,0,.03.01.04.02.04.01.08.03.12.04.06.02.12.04.17.06,14.67,5.23,29.71,9.41,44.62,13.98h0c.09.03.17.05.26.08,0,0,.01,0,.02,0,.09.03.17.05.25.08,0,0,.01,0,.02,0,.04.01.08.02.12.04,0,0,0,0,0,0,.03,0,.07.02.1.03.02,0,.04.01.06.02.02,0,.04.01.06.02.02,0,.05.01.07.02.02,0,.04.01.06.02.03,0,.05.02.08.03.08.02.16.05.24.07,0,0,.01,0,.02,0,.18.06.36.11.54.17,0,0,0,0,0,0,.08.02.16.05.24.07.02,0,.04.01.06.02.03,0,.06.02.09.03.01,0,.02,0,.03,0,.03,0,.06.02.09.03.02,0,.05.02.07.02,0,0,.02,0,.03,0,.04.01.07.02.11.03,0,0,0,0,.01,0,.04.01.08.03.13.04,0,0,.01,0,.01,0,.04.01.07.02.11.03.02,0,.04.01.06.02.03,0,.06.02.09.03,0,0,.01,0,.02,0,.13.04.25.08.38.12.02,0,.04.01.06.02.03,0,.06.02.08.03,0,0,.02,0,.03,0,.04.01.08.02.11.04,0,0,.01,0,.02,0,.04.01.08.02.12.04,0,0,.01,0,.01,0,.04.01.08.02.12.04,0,0,.02,0,.03,0,25.24,7.88,49.97,17.23,71.74,35.05h0s.07.06.11.1t0,0s.07.06.11.09c0,0,.01.01.02.01.07.06.14.12.22.18h0c.08.07.15.13.23.19,0,0,.02.02.03.03.03.02.05.04.08.07.01.01.03.02.04.03.02.02.05.04.08.06.01.01.03.02.04.04.03.02.05.04.08.06,0,0,.01.01.02.02.03.03.06.05.1.08.01.01.03.03.05.04.02.02.05.04.07.06.02.02.05.04.08.06.01,0,.03.02.04.03.03.02.05.04.08.07.01.01.02.02.04.03.02.02.05.04.07.06.01.01.03.02.04.04.02.02.05.04.08.07.01.01.03.02.04.03.02.02.05.04.07.06.01.01.03.02.04.04,3.78,3.21,7.47,6.68,11.05,10.46.16.17.33.33.5.49,12.5,11.77,27.4,18.74,41.92,25.85.16.08.31.15.47.23,0,0,0,0,0,0,.04.02.07.04.11.05.03.02.07.03.1.05.45.23.89.46,1.34.7.02,0,.03.02.05.03,9.27,4.98,18.57,12.59,28.76,12.6h.03c1.99,0,4.01-.29,6.07-.95,25.31-8.08,51.54-8.91,77.1-15.8.45-.12.9-.24,1.35-.36.05-.01.09-.02.13-.04.15-.04.3-.08.45-.12.07-.02.15-.04.23-.06.1-.03.2-.05.3-.08.06-.02.12-.03.17-.05.59-.16,1.18-.32,1.77-.49.04-.01.08-.02.12-.03.07-.02.14-.04.21-.06,0,0,0,0,.01,0,20.28-5.63,41.01-12.12,61.98-12.13h.04c6.33,0,12.67.59,19.03,1.97.09.02.17.04.26.06.16.04.32.07.49.11,0,0,0,0,0,0,.06.01.11.02.17.04,4.95,1.06,9.71,1.62,14.33,1.62h.03c9.9,0,19.17-2.55,28.44-8.06.09-.05.18-.11.27-.16.06-.04.13-.08.19-.12,45.51-23.88,93.31-41,139.68-61.41,15.98-7.03,30.53-10.31,44.09-10.31h.04c23.43,0,43.9,9.79,63.62,26.91,0,0,.01.01.02.02.05.04.1.09.15.13.07.06.13.12.2.18.31.27.62.54.93.81,27.36,24.21,55.36,40.84,87.04,44.48,4.31.49,8.68.75,13.14.75,6.73,0,13.63-.58,20.73-1.79,12.03,4.06,23.72,9.12,35.3,14.52h0c.05.03.1.05.16.07l.04.02c.05.02.1.05.15.07,0,0,.02,0,.03.01.05.02.09.04.14.07.02,0,.03.01.05.02.05.02.09.04.14.06.02,0,.03.01.05.02.04.02.09.04.13.06.02,0,.04.02.06.03.05.02.09.04.14.07.01,0,.03.01.04.02.04.02.09.04.13.06.03.01.05.02.07.03.04.02.07.03.11.05.03.01.05.02.08.04.04.02.07.03.11.05.02.01.05.02.08.04.04.02.07.04.11.05.03.01.05.02.07.04.04.02.07.04.11.05.02.01.05.02.07.03.04.02.09.04.13.06.02,0,.04.02.05.03.04.02.09.04.13.06.02,0,.04.02.07.03.04.02.08.04.12.06.01,0,.03.02.05.02.05.02.1.05.14.07,0,0,.02,0,.03.01.05.03.1.05.16.07.01,0,.02.01.04.02.04.02.09.04.13.06.03.01.06.03.09.04.03.01.06.03.09.04.03.02.07.04.11.05.02.01.05.02.07.03.04.02.08.04.12.06.02.01.05.02.07.03.04.02.09.04.13.06.01,0,.03.01.05.02.05.02.09.04.14.07.02,0,.03.02.05.03,9.54,4.53,19.01,9.24,28.56,13.79,1.42.68,2.83,1.35,4.25,2.01h0c.49.23.98.46,1.47.69,0,0,0,0,0,0,.12.05.23.11.35.16.01,0,.02,0,.03.01.05.02.11.05.16.07,0,0,.02,0,.02.01.05.02.09.04.14.07.01,0,.04.02.05.02.05.02.09.04.14.07.01,0,.03.01.04.02.05.02.1.05.15.07,0,0,.02,0,.03.01.05.03.11.05.16.07,0,0,.02,0,.03.01.05.02.1.05.15.07.01,0,.02.01.03.01.05.02.09.04.14.07.02,0,.03.02.05.02.04.02.09.04.14.06.02,0,.03.01.05.02.04.02.09.04.13.06.02,0,.04.02.06.03.04.02.09.04.13.06.02,0,.04.02.06.03.04.02.09.04.13.06.02,0,.04.02.06.03.05.02.09.04.14.06.01,0,.03.01.04.02.05.02.1.04.15.07.01,0,.02.01.04.02.04.02.09.04.14.06.02,0,.04.02.06.03.04.02.09.04.13.06.02,0,.03.01.05.02.04.02.09.04.13.06.02,0,.05.02.07.03.04.02.08.04.12.06.02,0,.04.02.06.03.04.02.08.04.13.06.02,0,.05.02.07.03.04.02.08.04.13.06.02,0,.03.01.05.02.04.02.09.04.13.06.02.01.05.02.07.03.04.01.08.03.11.05.03.01.05.02.08.04.03.01.07.03.1.04.03.01.06.03.09.04.04.02.07.03.11.05.02,0,.04.02.06.03.04.02.09.04.13.06.02.01.05.02.07.03.04.02.08.04.11.05.03.01.05.02.08.04l.11.05s.06.03.09.04c.03.01.06.03.09.04.03.01.06.03.09.04.03.01.06.03.09.04.04.02.08.03.11.05.02,0,.05.02.07.03.04.02.07.03.11.05.03.01.05.02.08.04.04.02.08.04.13.06.02,0,.04.02.06.03.04.02.09.04.13.06.02,0,.04.02.07.03.05.02.09.04.14.06.01,0,.03.01.04.02.05.02.1.04.15.07.01,0,.03.01.04.02.12.05.24.11.36.16,0,0,.01,0,.02,0,.06.03.12.05.17.08,0,0,.01,0,.02,0,.25.11.5.23.76.34.03.01.06.03.09.04.03.01.07.03.1.05.03.01.06.03.1.04.03.01.06.03.09.04.03.01.07.03.1.04.03.01.06.03.09.04.03.01.06.03.09.04.03.01.07.03.1.04.03.01.05.02.08.04.04.02.08.04.12.05.02,0,.04.02.06.03.04.02.08.04.13.06.02,0,.04.02.07.03.04.02.08.04.12.05.03.01.05.02.08.03.04.02.08.03.12.05.02,0,.04.02.06.03.04.02.09.04.13.06.02,0,.04.02.06.02.04.02.09.04.13.06.02.01.05.02.07.03.04.02.08.04.12.05.03.01.05.02.08.03.04.02.07.03.11.05.03.01.05.02.08.03.04.02.08.03.12.05.02,0,.04.02.06.03.05.02.09.04.13.06.02,0,.04.02.06.03.04.02.08.04.12.05.03.01.05.02.08.03.04.01.08.03.11.05.03.01.05.02.08.03.04.02.07.03.11.05.03.01.05.02.08.04.04.02.07.03.11.05.03.01.05.02.08.04.04.01.07.03.11.05.03.01.05.02.08.04.04.01.08.03.11.05.03.01.05.02.07.03.04.02.08.03.12.05.02,0,.05.02.07.03.04.02.08.04.12.05.02,0,.04.02.06.03.04.02.08.03.12.05.03.01.06.03.09.04.04.01.07.03.11.04.03.01.05.02.08.03.04.02.08.03.12.05.03.01.05.02.08.03.04.01.07.03.11.05.03.01.06.02.09.04.03.01.07.03.1.04.03.01.06.02.08.04.04.02.07.03.11.05.03.01.05.02.08.03.04.02.07.03.11.05.03.01.05.02.08.03.04.02.07.03.11.05.03.01.05.02.08.04.03.01.07.03.1.04.03.01.07.03.1.04.03.01.07.03.1.04.03.01.05.02.08.04.04.02.08.03.12.05.03.01.05.02.08.03.05.02.09.04.14.06.01,0,.03.01.04.02.04.02.09.04.13.06.02,0,.04.02.06.03.12.05.25.11.37.16,0,0,0,0,0,0,.39.16.77.33,1.15.49,0,0,0,0,.01,0,.06.03.12.05.18.08,0,0,0,0,0,0,.06.02.12.05.18.07.02,0,.05.02.07.03.04.02.09.04.13.05.01,0,.03.01.04.02.05.02.1.04.15.06.02,0,.04.01.05.02.05.02.09.04.14.06.02,0,.03.01.05.02.05.02.09.04.14.06.03,0,.05.02.07.03.04.01.07.03.11.05.03.01.06.02.09.04.04.01.07.03.11.04.02,0,.05.02.07.03.04.02.08.04.12.05.02,0,.05.02.07.03.04.02.08.03.12.05.03.01.06.02.08.04.04.01.07.03.11.04.03.01.05.02.08.03.04.01.07.03.11.04.03.01.05.02.08.03.04.02.08.03.12.05.02,0,.04.02.07.03.04.02.09.04.13.05.02,0,.05.02.07.03.04.02.08.03.12.05.02.01.05.02.08.03.04.01.07.03.11.05.02.01.05.02.08.03.04.01.08.03.12.05.03.01.05.02.08.03.04.02.07.03.11.05.03.01.05.02.08.03.04.01.07.03.11.05.03.01.05.02.08.03.04.01.07.03.11.04.03.01.05.02.08.03.04.01.07.03.11.04.03.01.06.02.09.04.03.01.07.03.1.04.03.01.06.02.09.04.04.01.07.03.1.04.03.01.07.03.1.04.03.01.06.02.09.04.03.01.06.03.1.04.03.01.07.03.1.04.03.01.06.02.09.04.03.01.06.03.09.04s.06.02.09.04c.04.01.07.03.1.04.03.01.06.02.09.04.04.01.07.03.1.04.03.01.06.02.08.03.04.01.08.03.12.05.02,0,.05.02.07.03.04.02.08.03.12.05.02,0,.05.02.07.03.04.02.08.03.12.05.02,0,.05.02.07.03.04.01.08.03.12.05.03.01.05.02.08.03.04.01.08.03.11.04.03,0,.05.02.08.03.04.01.07.03.11.04.03,0,.05.02.08.03.04.02.09.03.13.05.02,0,.04.02.06.02.04.02.08.03.12.05.02,0,.05.02.07.03.04.01.08.03.12.04.03,0,.05.02.08.03.03.01.06.02.09.04.04.01.07.03.1.04.13.05.25.1.38.15.07.03.13.05.2.08.22.09.44.17.66.26.06.02.13.05.19.07.07.03.13.05.2.08.01,0,.03.01.04.02.09.04.18.07.28.11.1.04.2.08.3.12.09.04.19.07.28.11,26.44,10.1,52.24,16.39,78.17,16.4h.03c18.92,0,37.91-3.36,57.26-11.03.39-.16.79-.32,1.19-.48,12.75-5.16,25.38-8.03,37.97-8.04h.04c13.98,0,27.9,3.56,41.85,11.48.05.03.09.05.14.08.24.14.48.28.73.42,18.86,10.96,39.01,18.94,58.56,28.31,25.59,12.28,51.37,16.57,77.2,16.57h.04c31.89,0,63.87-6.53,95.73-12.62.08-.01.15-.03.23-.04.04,0,.08-.01.12-.02.22-.04.45-.08.67-.13,28.07-5.36,54.98-8.26,81.48-8.77,3.23-.07,6.47-.1,9.69-.1,36.93,0,73.47,4.52,109.78,13.8,6.13,1.48,12.29,3.08,18.49,4.8v-385.36c-8.9-1.35-17.66-1.98-26.29-1.98h0Z"/><path class="cls-2" d="M0,386.9v369.53c.9-.01,1.81-.02,2.71-.02,11.64,0,23.16,1.03,34.55,3.49.05,0,.1.02.14.03,0,0,0,0,.01,0,11.45,2.48,22.76,6.39,33.88,12.12,5.79,2.98,11.52,6.46,17.21,10.48,3.19,2.26,6.39,4.49,9.6,6.68,7.9,5.38,15.9,10.51,24.07,15.18,12.75,7.3,25.93,13.5,39.86,17.84,2.46.77,4.95,1.48,7.46,2.12,17.9,4.62,35.19,11.4,52.76,17.37,17.09,5.81,34.45,10.87,52.91,12.46,60.23,5.19,120.45,16.1,174.77,50.59,2.63,1.67,5.28,3.08,7.94,4.26,2.92,1.28,5.86,2.28,8.82,3.03,4.93,1.24,9.95,1.79,15.1,1.79,1.44,0,2.88-.04,4.34-.12,1.27-.12,2.51,2.48,3.68,1.87,7.74-4,15.72-9.7,23.83-11.7,0,0,0,0,0,0,.05-.01.1-.02.15-.04,0,0,0,0,0,0,.05-.01.1-.02.15-.04,0,0,.02,0,.03,0,.04-.01.09-.02.13-.03,0,0,.02,0,.03,0,.04-.01.08-.02.13-.03,0,0,.02,0,.03,0,.04,0,.08-.02.12-.03.01,0,.02,0,.04,0,.04,0,.08-.02.11-.03.02,0,.03,0,.05-.01.04,0,.07-.02.11-.03.01,0,.03,0,.05-.01.04,0,.07-.02.11-.02.02,0,.03,0,.05-.01.04,0,.07-.02.11-.03.02,0,.03,0,.05-.01.03,0,.07-.01.1-.02.02,0,.04,0,.06-.01.03,0,.06-.01.1-.02.02,0,.04-.01.06-.01l.09-.02s.04,0,.07-.01c.03,0,.06-.01.09-.02.02,0,.04,0,.07-.01.03,0,.06-.01.08-.02.03,0,.05-.01.08-.02.03,0,.05-.01.08-.02.03,0,.06-.01.08-.02.02,0,.04-.01.07-.02.03,0,.06-.01.09-.02.02,0,.04-.01.07-.01.03,0,.06-.01.09-.02.02,0,.03,0,.05-.01.04,0,.07-.02.11-.02.02,0,.03,0,.05-.01.04,0,.07-.02.11-.02.02,0,.03,0,.05-.01.03,0,.07-.01.1-.02.02,0,.04,0,.05-.01.04,0,.07-.02.11-.02,0,0,.02,0,.02,0,.04,0,.09-.02.13-.03,0,0,.02,0,.03,0,.04,0,.09-.02.13-.03,0,0,0,0,0,0,.05-.01.1-.02.15-.03,0,0,.01,0,.02,0,16.88-3.72,34.24-4.86,51.06-8.89h0c.05-.01.11-.03.16-.04,55.37-13.32,111.36-16.78,167.46-16.79h.04c26.07,0,52.16.75,78.22,1.6.17,0,.36.01.53.02.5.02.99.03,1.49.05.47.01.93.03,1.4.05.53.02,1.05.04,1.58.05.28,0,.56.02.84.03.16,0,.32.01.48.02.04,0,.09,0,.14,0,13.08.45,26.02.94,38.95.94h.04c18.44,0,36.87-1.01,55.7-4.59,35-6.66,65.56-24.04,96.59-39.84.21-.11.42-.21.63-.32.13-.07.26-.13.39-.2.09-.05.18-.09.27-.14.13-.07.25-.13.38-.19,38.91-19.61,77.36-32.19,119.14-32.2h.03c9.67,0,19.51.67,29.58,2.09,9.35,1.31,18.85,2.09,28.44,2.09h.04c24.1,0,48.69-4.96,72.49-18.91.04-.02.09-.05.13-.08.16-.09.31-.18.47-.28,28.16-16.68,59.75-26.06,87.35-45.67.04-.03.08-.06.12-.09.05-.03.09-.07.14-.1.12-.08.23-.16.35-.24,0,0,.01,0,.02-.01,5.7-3.91,12.53-6.67,19.24-6.68h.04c4.1,0,8.15,1.03,11.87,3.46,29.66,19.35,64.59,11.99,95.24,26.81,4.15,2.01,8.73,2.8,13.48,2.8h.04c6.81,0,13.98-1.63,20.77-3.64.03,0,.07-.02.1-.03.05-.01.1-.03.15-.04,0,0,0,0,.01,0,.05-.01.1-.03.15-.05.17-.05.34-.1.51-.15.03,0,.06-.02.09-.03,7.52-2.19,15.25-3.65,22.88-3.66h.04c6.7,0,13.32,1.13,19.63,3.88.06.03.13.06.19.08.2.09.41.18.61.27.12.05.25.11.37.16,23.44,10.14,47,13.49,70.6,13.49h.04c30.21,0,60.5-5.49,90.72-9.23.16-.02.31-.04.47-.06.31-.04.62-.08.93-.12,8.99-1.13,17.98-2.4,26.85-2.4h.03c3.53,0,7.04.2,10.53.69.16.02.33.05.49.07.37.06.74.11,1.12.17,13.41,1.96,26.68,2.9,39.79,2.9h.04c46.88,0,91.93-12.07,135.63-33.11v-33.03c-6.16-1.85-12.33-3.57-18.49-5.14-37.66-9.11-73.98-13.78-110.99-13.78-2.82,0-5.66.03-8.49.08-26.92.57-54.04,3.53-81.48,8.77-.22.04-.45.09-.67.13-.04,0-.08.02-.12.02-.08.01-.15.03-.23.04-31.86,6.08-63.83,12.62-95.73,12.62h-.04c-25.83,0-51.6-4.29-77.2-16.57-19.55-9.38-39.71-17.35-58.56-28.31-.24-.14-.48-.28-.73-.42-.05-.03-.09-.05-.14-.08-13.94-7.92-27.86-11.47-41.85-11.48h-.04c-12.58,0-25.22,2.88-37.97,8.04-.4.16-.79.32-1.19.47-19.35,7.67-38.34,11.03-57.26,11.03h-.04c-25.93,0-51.72-6.3-78.17-16.4-.09-.04-.19-.07-.28-.11-.1-.04-.2-.08-.3-.12-.09-.04-.18-.07-.28-.11-.01,0-.03-.01-.04-.02-.07-.03-.13-.05-.2-.08-.06-.02-.13-.05-.19-.07-.22-.09-.44-.17-.66-.26-.07-.03-.13-.05-.2-.08-.13-.05-.25-.1-.38-.15-.03-.01-.07-.03-.1-.04-.03-.01-.06-.02-.09-.04-.03-.01-.05-.02-.08-.03-.04-.02-.08-.03-.12-.04-.02,0-.05-.02-.07-.03-.04-.02-.08-.03-.12-.05-.02,0-.04-.02-.06-.02-.05-.02-.09-.03-.13-.05-.03-.01-.05-.02-.08-.03-.04-.01-.07-.03-.11-.04-.03-.01-.05-.02-.08-.03-.04-.01-.08-.03-.11-.04-.02-.01-.05-.02-.08-.03-.04-.01-.08-.03-.12-.05-.02,0-.05-.02-.07-.03-.04-.02-.08-.03-.12-.05-.02-.01-.05-.02-.07-.03-.04-.01-.08-.03-.12-.05-.02,0-.05-.02-.07-.03-.04-.02-.08-.03-.12-.05-.03-.01-.06-.02-.09-.03-.04-.01-.07-.03-.1-.04-.03-.01-.06-.02-.09-.04-.03-.01-.07-.03-.1-.04-.03-.01-.06-.02-.09-.04-.03-.01-.06-.03-.1-.04-.03-.01-.06-.02-.09-.04-.03-.01-.07-.03-.1-.04-.03-.01-.07-.03-.1-.04-.03-.01-.06-.02-.09-.04-.03-.01-.07-.03-.1-.04s-.06-.03-.1-.04c-.03-.01-.06-.02-.09-.04-.03-.01-.07-.03-.1-.04-.03-.01-.06-.02-.09-.04-.04-.01-.07-.03-.11-.04-.03,0-.06-.02-.08-.03-.04-.01-.07-.03-.11-.04-.03-.01-.05-.02-.08-.03-.04-.01-.08-.03-.11-.05-.03,0-.06-.02-.08-.03-.04-.01-.08-.03-.11-.05-.03-.01-.05-.02-.07-.03-.04-.02-.08-.03-.12-.05-.03-.01-.05-.02-.08-.03-.04-.02-.07-.03-.11-.05-.02-.01-.05-.02-.08-.03-.04-.02-.08-.03-.12-.05-.02-.01-.05-.02-.07-.03-.04-.02-.08-.03-.13-.05-.02,0-.04-.02-.06-.03l-.12-.05s-.05-.02-.08-.03c-.04-.01-.07-.03-.11-.04-.03-.01-.05-.02-.08-.03-.04-.01-.07-.03-.11-.04-.03-.01-.06-.02-.08-.04-.04-.01-.08-.03-.12-.05-.02-.01-.04-.02-.07-.03-.04-.02-.08-.04-.12-.05-.02,0-.05-.02-.07-.03-.04-.01-.07-.03-.11-.04-.03-.01-.06-.02-.08-.04-.04-.02-.07-.03-.11-.05-.02,0-.05-.02-.07-.03-.05-.02-.09-.04-.14-.06-.01,0-.03-.01-.04-.02-.05-.02-.1-.04-.14-.06-.02,0-.03-.01-.05-.02-.05-.02-.1-.04-.15-.06-.01,0-.03,0-.04-.02-.04-.02-.09-.04-.13-.05-.02,0-.04-.02-.07-.03-.06-.02-.12-.05-.18-.07,0,0,0,0,0,0-.06-.03-.12-.05-.18-.08,0,0,0,0-.01,0-.39-.16-.77-.32-1.15-.49,0,0,0,0,0,0-.12-.05-.25-.1-.37-.16-.02,0-.04-.02-.06-.03-.04-.02-.09-.04-.13-.06-.02,0-.03-.01-.04-.02-.05-.02-.09-.04-.14-.06-.02-.01-.05-.02-.07-.03-.04-.02-.08-.03-.12-.05-.03-.01-.06-.02-.08-.04-.03-.01-.07-.03-.1-.04s-.06-.03-.1-.04c-.03-.01-.06-.03-.1-.04-.03-.01-.05-.02-.08-.04-.04-.02-.08-.03-.11-.05-.02,0-.05-.02-.08-.03-.04-.02-.08-.03-.11-.05-.03-.01-.05-.02-.08-.03-.04-.02-.08-.03-.11-.05-.03-.01-.05-.02-.08-.04-.04-.01-.07-.03-.1-.04l-.09-.04s-.07-.03-.11-.05c-.03-.01-.05-.02-.08-.03-.04-.02-.08-.03-.12-.05-.03-.01-.05-.02-.08-.03-.04-.01-.07-.03-.11-.05-.03-.01-.06-.02-.08-.04-.04-.02-.08-.03-.12-.05-.02,0-.04-.02-.06-.03-.04-.02-.08-.04-.12-.05-.02,0-.05-.02-.07-.03-.04-.02-.08-.04-.12-.05-.03-.01-.05-.02-.07-.03-.04-.02-.08-.03-.11-.05-.03-.01-.05-.02-.08-.04-.04-.02-.07-.03-.11-.05-.03-.01-.05-.02-.08-.03-.04-.02-.07-.03-.11-.05-.03-.01-.06-.02-.08-.04-.04-.02-.07-.03-.11-.05-.03-.01-.05-.02-.08-.03-.04-.02-.08-.03-.11-.05-.03-.01-.05-.02-.08-.03-.04-.02-.08-.04-.13-.06-.02,0-.04-.02-.06-.02-.04-.02-.09-.04-.13-.06-.02,0-.04-.02-.06-.03-.04-.02-.08-.03-.12-.05-.03-.01-.05-.02-.08-.03-.04-.02-.07-.03-.11-.05-.03-.01-.05-.02-.08-.03-.04-.02-.08-.04-.12-.05-.02,0-.05-.02-.07-.03-.04-.02-.09-.04-.13-.06-.02,0-.04-.02-.06-.02-.04-.02-.09-.04-.13-.06-.02,0-.04-.02-.07-.03-.04-.02-.08-.03-.12-.05-.03-.01-.05-.02-.07-.03-.04-.02-.08-.04-.12-.05-.02-.01-.05-.02-.07-.03-.04-.02-.09-.04-.13-.06-.02,0-.04-.02-.06-.03-.04-.02-.08-.04-.12-.05-.03-.01-.05-.02-.08-.04-.03-.01-.07-.03-.1-.04-.03-.01-.06-.03-.09-.04-.03-.01-.06-.03-.09-.04-.03-.01-.07-.03-.1-.04-.03-.01-.06-.03-.09-.04-.03-.01-.07-.03-.1-.04-.03-.01-.07-.03-.1-.04-.03-.01-.06-.03-.09-.04-.25-.11-.5-.23-.76-.34h-.02c-.06-.03-.12-.06-.17-.09,0,0-.01,0-.02,0-.12-.05-.24-.11-.36-.16-.01,0-.03-.01-.04-.02-.05-.02-.1-.05-.15-.07-.01,0-.03-.01-.04-.02-.05-.02-.09-.04-.14-.06-.02-.01-.04-.02-.07-.03-.04-.02-.08-.04-.13-.06-.02,0-.04-.02-.06-.03-.04-.02-.09-.04-.13-.06-.03-.01-.05-.02-.08-.04-.04-.02-.07-.03-.11-.05-.02,0-.05-.02-.07-.03-.04-.02-.07-.03-.11-.05-.03-.01-.06-.03-.09-.04-.03-.01-.06-.03-.09-.04-.03-.01-.06-.03-.09-.04-.03-.01-.06-.03-.09-.04-.04-.02-.07-.03-.1-.05-.03-.01-.05-.02-.08-.04-.04-.02-.08-.03-.11-.05-.03-.01-.05-.02-.07-.03l-.13-.06s-.04-.02-.06-.03c-.04-.02-.07-.03-.11-.05-.03-.01-.06-.03-.09-.04-.03-.01-.07-.03-.1-.04-.03-.01-.05-.03-.08-.04-.04-.02-.07-.03-.11-.05-.03-.01-.04-.02-.07-.03-.04-.02-.09-.04-.13-.06-.02,0-.03-.02-.05-.02-.04-.02-.08-.04-.13-.06-.02,0-.05-.02-.07-.03-.04-.02-.08-.04-.13-.06-.02,0-.04-.02-.06-.03-.04-.02-.08-.04-.12-.05-.02-.01-.05-.02-.07-.03-.04-.02-.09-.04-.13-.06-.02,0-.03-.01-.05-.02-.04-.02-.09-.04-.13-.06-.02,0-.04-.02-.06-.03-.05-.02-.09-.04-.14-.06-.01,0-.02-.01-.04-.02-.05-.02-.1-.04-.15-.07-.01,0-.03-.01-.04-.02-.05-.02-.09-.04-.14-.06-.02,0-.04-.02-.06-.03-.04-.02-.09-.04-.13-.06-.02,0-.04-.02-.05-.03-.04-.02-.09-.04-.13-.06-.02,0-.04-.02-.06-.03-.04-.02-.09-.04-.13-.06-.02,0-.03-.02-.05-.02-.04-.02-.09-.04-.13-.06-.02,0-.03-.02-.05-.02-.05-.02-.09-.04-.14-.07,0,0-.02-.01-.03-.01-.05-.02-.1-.05-.16-.07,0,0-.02,0-.03-.01-.05-.03-.11-.05-.16-.07,0,0-.02,0-.03-.01-.05-.02-.1-.05-.15-.07-.01,0-.03-.01-.04-.02-.05-.02-.09-.04-.14-.07-.02,0-.03-.01-.05-.02-.05-.02-.09-.04-.14-.07,0,0-.01,0-.02-.01-.05-.02-.11-.05-.16-.07,0,0-.02,0-.03-.01-.12-.05-.23-.11-.35-.16,0,0,0,0,0,0-.49-.23-.98-.46-1.47-.69,0,0,0,0,0,0-1.42-.67-2.84-1.34-4.25-2.01-9.55-4.55-19.03-9.27-28.56-13.8-.02,0-.04-.02-.05-.02-.05-.02-.09-.04-.14-.07-.02,0-.03-.01-.05-.02-.05-.02-.09-.04-.13-.06-.02-.01-.05-.02-.07-.03-.04-.02-.08-.04-.12-.06-.03-.01-.05-.02-.07-.03-.04-.02-.07-.03-.11-.05-.03-.01-.06-.03-.09-.04-.03-.01-.06-.03-.09-.04-.04-.02-.09-.04-.13-.06-.01,0-.02-.01-.04-.02-.05-.03-.1-.05-.16-.07,0,0-.02,0-.03-.01-.05-.02-.09-.04-.14-.07-.02,0-.03-.01-.05-.02-.04-.02-.08-.04-.12-.06-.02-.01-.04-.02-.06-.03-.04-.02-.09-.04-.13-.06-.02,0-.04-.02-.05-.03-.04-.02-.08-.04-.13-.06-.02-.01-.05-.02-.07-.03-.04-.02-.07-.04-.11-.05-.02-.01-.05-.02-.07-.04-.04-.02-.08-.04-.11-.05-.03-.01-.05-.02-.08-.04-.04-.02-.07-.03-.11-.05-.03-.01-.05-.03-.08-.04-.03-.02-.07-.04-.11-.05-.02-.01-.05-.02-.07-.03-.04-.02-.09-.04-.13-.06-.01,0-.03-.01-.04-.02-.05-.02-.09-.04-.14-.07-.02,0-.04-.02-.06-.03-.04-.02-.09-.04-.13-.06-.02,0-.03-.01-.05-.02-.04-.02-.09-.04-.14-.06-.02,0-.04-.02-.05-.02-.05-.02-.09-.04-.14-.07,0,0-.02,0-.03-.01-.05-.02-.1-.05-.15-.07-.01,0-.03-.01-.04-.02-.05-.02-.1-.05-.16-.07,0,0,0,0,0,0-10.84-5.07-21.78-9.82-33-13.74-1.02-.36-2.07-.52-3.14-.52-.51,0-1.03.04-1.54.12-6.27.95-12.38,1.4-18.35,1.4-4.45,0-8.83-.25-13.14-.75-31.69-3.63-59.68-20.26-87.04-44.48-.31-.27-.62-.55-.93-.81-.07-.06-.13-.12-.2-.18-.05-.04-.1-.09-.15-.13,0,0-.01-.01-.02-.02-19.72-17.11-40.19-26.9-63.62-26.91h-.04c-13.56,0-28.11,3.28-44.09,10.31-46.37,20.41-94.16,37.53-139.68,61.42-.06.04-.13.08-.19.12-.09.05-.18.11-.27.16-9.27,5.52-18.54,8.06-28.44,8.06h-.03c-4.62,0-9.37-.55-14.33-1.62-.06-.01-.11-.02-.17-.04,0,0,0,0,0,0-.16-.04-.32-.07-.49-.11-.09-.02-.17-.04-.26-.06-6.36-1.38-12.71-1.97-19.03-1.97h-.04c-20.97,0-41.7,6.5-61.98,12.13h-.02c-.07.02-.14.04-.21.06-.04.01-.08.02-.12.03-.59.16-1.18.33-1.77.49-.06.01-.12.03-.18.05-.1.03-.2.05-.3.08-.07.02-.15.04-.23.06-.15.04-.3.08-.45.12-.05.01-.09.02-.13.04-.45.12-.9.24-1.35.36-25.56,6.89-51.79,7.72-77.1,15.8-2.06.66-4.08.95-6.07.95h-.03c-10.19,0-19.49-7.62-28.75-12.6-.02,0-.03-.02-.05-.03-.45-.24-.9-.47-1.34-.7-.03-.02-.07-.03-.1-.05-.04-.02-.07-.04-.11-.05,0,0,0,0,0,0h0c-.16-.08-.31-.16-.47-.23-14.62-7.15-29.62-14.17-42.17-26.08-3.66-3.88-7.43-7.43-11.3-10.71-.01-.01-.03-.02-.04-.04-.02-.02-.05-.04-.07-.06-.01-.01-.03-.02-.04-.03-.03-.02-.05-.04-.08-.07-.01-.01-.03-.02-.04-.04-.02-.02-.05-.04-.07-.06-.01-.01-.02-.02-.04-.03-.03-.02-.05-.04-.08-.07-.01-.01-.03-.02-.04-.03-.03-.02-.05-.04-.08-.07-.02-.02-.04-.04-.07-.06-.02-.01-.03-.03-.05-.04-.03-.03-.06-.05-.09-.08,0,0-.02-.01-.02-.02-.02-.02-.05-.04-.07-.06-.01-.01-.03-.02-.04-.04-.03-.02-.05-.04-.08-.06-.01-.01-.03-.02-.04-.03-.03-.02-.06-.04-.08-.07-.01,0-.02-.02-.03-.03-.08-.07-.15-.13-.23-.19h0c-.07-.06-.14-.12-.22-.18,0,0-.01-.01-.02-.01-.04-.03-.07-.06-.11-.09t0,0s-.07-.06-.11-.09h0c-21.77-17.82-46.5-27.17-71.74-35.05,0,0-.02,0-.03,0-.04-.01-.08-.02-.12-.04,0,0-.01,0-.01,0-.04-.01-.08-.02-.12-.04,0,0,0,0-.02,0-.04-.01-.07-.02-.11-.04,0,0-.02,0-.03,0-.03,0-.06-.02-.08-.03-.02,0-.04-.01-.07-.02-.12-.04-.25-.08-.38-.12,0,0-.01,0-.02,0-.03,0-.06-.02-.09-.03-.02,0-.04-.01-.06-.02-.04-.01-.07-.02-.11-.03,0,0-.01,0-.01,0-.04-.01-.08-.03-.13-.04,0,0-.01,0-.01,0-.04-.01-.07-.02-.11-.03-.01,0-.02,0-.03,0-.03,0-.05-.01-.07-.02-.03,0-.06-.02-.09-.03,0,0-.02,0-.03,0-.03,0-.06-.02-.09-.03-.02,0-.04-.01-.05-.02-.08-.02-.16-.05-.24-.07,0,0,0,0,0,0-.18-.05-.36-.11-.54-.17,0,0-.01,0-.02,0-.08-.02-.16-.05-.24-.07-.03,0-.06-.02-.08-.03-.02,0-.04-.01-.06-.02-.03,0-.05-.01-.07-.02-.02,0-.04-.01-.06-.02-.02,0-.04-.01-.06-.02-.03-.01-.06-.02-.1-.03,0,0,0,0,0,0-.04-.01-.08-.03-.12-.04,0,0-.01,0-.02,0-.09-.03-.17-.05-.25-.08,0,0-.02,0-.02,0-.09-.03-.17-.05-.26-.08h0c-14.91-4.56-29.95-8.74-44.62-13.98-.06-.02-.12-.04-.17-.06-.04-.01-.08-.03-.12-.04-.01,0-.03-.01-.04-.02-.02,0-.05-.02-.07-.03-.02,0-.03-.01-.05-.02-.02,0-.04-.02-.07-.03-.02,0-.04-.01-.05-.02-.02,0-.04-.02-.07-.02-.02,0-.04-.01-.05-.02-.02,0-.05-.02-.07-.03-.02,0-.05-.02-.07-.03-.03,0-.05-.02-.08-.03-.02,0-.04-.01-.06-.02-.02,0-.04-.02-.06-.02-.02,0-.04-.02-.06-.02-.02,0-.04-.01-.05-.02-.02,0-.04-.02-.06-.03-.02,0-.03-.01-.05-.02-.02,0-.04-.02-.07-.03-.01,0-.03-.01-.04-.02-.09-.03-.17-.07-.26-.1-.01,0-.02,0-.03-.01-.02-.01-.05-.02-.08-.03-.01,0-.03-.01-.04-.02-.03-.01-.05-.02-.07-.03-.01,0-.02,0-.04-.01-.03-.01-.05-.02-.08-.03,0,0,0,0-.01,0-.1-.04-.2-.08-.29-.12,0,0-.01,0-.02,0-.03-.01-.06-.03-.09-.04,0,0-.01,0-.02,0-.03-.01-.06-.03-.09-.04,0,0-.01,0-.02,0-.17-.07-.34-.15-.51-.23,0,0,0,0,0,0-2.98-1.34-5.86-3.03-8.74-4.69,0,0,0,0-.01,0-.03-.01-.05-.03-.08-.05-.02-.01-.04-.03-.07-.04,0,0,0,0,0,0-.47-.27-.94-.54-1.42-.81-1.56-.88-3.26-1.31-4.99-1.31-.06,0-.12,0-.18,0-.63.01-1.25.02-1.87.02-10.37,0-20.34-2.18-29.01-9.48-27.38-23.13-60.89-32.48-89.19-53.41-.1-.07-.2-.15-.3-.22-.03-.02-.06-.04-.09-.07,0,0,0,0,0,0-.03-.02-.06-.04-.1-.07-4-2.83-8.43-4.48-12.7-4.5h-.06c-1.88,0-3.73.32-5.49,1-.02,0-.04.02-.06.02-.02,0-.05.02-.07.03,0,0-.02,0-.02,0-.02,0-.05.02-.07.03-.06.02-.11.04-.17.07-9.67,3.9-19.04,5.57-28.22,5.57h-.04c-19.39,0-37.9-7.43-56.46-16.9-.13-.07-.25-.13-.38-.2-.08-.04-.15-.08-.23-.12-.23-.12-.47-.24-.7-.36-.1-.05-.2-.1-.3-.15-35.83-18.47-72.19-35.59-108.31-53.28h-.02c-.05-.04-.11-.08-.16-.12,0,0-.01,0-.02-.01-.05-.03-.1-.07-.14-.1-.02-.01-.04-.03-.06-.04-.03-.02-.07-.05-.1-.07-.02-.02-.04-.03-.07-.05-.03-.02-.07-.05-.1-.07-.02-.01-.04-.02-.05-.04-.04-.03-.07-.05-.11-.08-.02-.01-.04-.03-.05-.04-.04-.02-.07-.05-.11-.08-.02-.01-.04-.03-.06-.04-.04-.02-.07-.05-.1-.07-.02-.01-.04-.03-.07-.05-.03-.02-.07-.04-.1-.07-.02-.01-.04-.03-.07-.05-.03-.02-.06-.04-.09-.07-.02-.02-.04-.03-.07-.05-.03-.02-.07-.04-.1-.07-.02-.01-.04-.03-.06-.04-.03-.02-.07-.05-.1-.07-.02-.01-.04-.03-.07-.04-.03-.02-.07-.04-.1-.07-.02-.02-.04-.03-.07-.05-.03-.02-.06-.04-.09-.06-.02-.02-.05-.03-.07-.05-.03-.02-.07-.05-.1-.07-.02-.01-.04-.02-.05-.04-.04-.03-.08-.05-.11-.08-.02-.01-.03-.02-.05-.03-.04-.03-.07-.05-.11-.08-.02-.01-.04-.03-.05-.04-.04-.02-.07-.05-.11-.07-.02-.01-.04-.03-.06-.04-.04-.03-.07-.05-.11-.08-.02-.01-.03-.02-.05-.03-.04-.03-.08-.05-.11-.08-.02-.01-.03-.02-.05-.03-.04-.02-.07-.05-.11-.07-.02-.01-.04-.03-.06-.04-.03-.02-.07-.05-.1-.07-.02-.01-.04-.03-.06-.04-.04-.02-.07-.05-.11-.07-.02-.01-.04-.03-.06-.04-.04-.03-.08-.05-.11-.08-.01,0-.03-.02-.05-.03-.04-.03-.08-.05-.12-.08-.01-.01-.03-.02-.04-.03-.04-.03-.08-.05-.12-.08-.01-.01-.03-.02-.04-.03-.04-.03-.08-.06-.12-.08-.01,0-.03-.02-.04-.03-.04-.03-.09-.06-.13-.09,0,0-.02-.01-.03-.02-.04-.03-.09-.06-.14-.09,0,0-.02-.01-.03-.02-1.16-.77-2.31-1.53-3.48-2.27h0c-5.18-3.31-10.43-6.34-15.74-9.06"/><path class="cls-7" d="M487.91,913.62c-.59.05-1.19.09-1.78.12-.1,0-.21.02-.31.02-1.35.07-2.68.11-4.01.11-5.15,0-10.17-.55-15.11-1.8-2.97-.75-5.91-1.75-8.82-3.03-2.66-1.17-5.31-2.58-7.94-4.25-54.32-34.5-114.55-45.41-174.77-50.59-18.46-1.6-35.82-6.66-52.91-12.47-17.57-5.97-34.86-12.75-52.77-17.37-2.51-.65-4.99-1.36-7.45-2.12-13.94-4.34-27.11-10.54-39.86-17.84-8.17-4.68-16.16-9.8-24.07-15.18-3.22-2.19-6.42-4.42-9.62-6.68-5.68-4.02-11.41-7.5-17.2-10.48-11.12-5.73-22.42-9.64-33.88-12.12,0,0,0,0-.01,0-.05-.01-.1-.02-.14-.03-11.38-2.45-22.9-3.48-34.52-3.48-.91,0-1.83,0-2.74.02v336.91h1934.75v-79.76c-20.29.72-40.57,1.24-60.85,1.24-9.23,0-18.47-.11-27.7-.36-7.76-.21-15.51-.59-23.26-1.02-17-.94-33.96-2.1-50.97-2.1-1.58,0-3.16,0-4.74.03-4.33.06-8.66.2-13,.45-.02,0-.05,0-.07,0h-.01c-8.55.49-17.11,1.4-25.71,2.89-20.74,3.61-39.96,12.31-59.64,19.32-6.03,2.15-12.11,4.15-18.29,5.79-13.5,3.58-26.93,5.97-40.34,6.4-1.45.05-2.9.07-4.36.07-12.55,0-25.07-1.79-37.59-6.02-31.58-10.66-63.57-17.85-95.82-23.45-25.36-4.4-50.88-7.82-76.49-11.18-5.61-.73-11.22-1.47-16.83-2.2-11.91-1.57-23.62-2.3-35.15-2.3-2.81,0-5.6.04-8.39.13-51.42,1.59-99.63,17.52-147.84,38.95-.14.06-.28.13-.42.19,0,0,0,0,0,0-18.86,4.97-37.6,11.06-56.46,15.98-10.84,2.82-21.72,5.26-32.69,6.87-21.94,3.21-44.18,7.48-66.05,7.48-25.22,0-49.96-5.67-73.23-25.14-8.82-5.66-17.66-11.27-26.5-16.9-13.5-8.59-26.98-17.21-40.34-26.07-17.95-11.91-36.49-21.32-55.58-28.64-26.98-10.35-55.03-16.52-84.01-19.69-.5-.06-1.01-.11-1.51-.16-73.96-7.79-147.84-16.62-221.63-26.24-11.36-1.48-22.36-6.68-33.43-11.21-2.64-1.08-5.28-2.12-7.94-3.06"/><path class="cls-8" d="M1371.36,734.72h-.03c-6.71,0-13.54,2.77-19.24,6.68,0,0-.01,0-.02.01-.12.08-.23.16-.35.24-.05.03-.09.07-.14.1-.04.03-.08.06-.12.09-27.6,19.61-59.19,28.98-87.35,45.67-.16.09-.31.19-.47.28-.04.03-.09.05-.13.08-23.8,13.95-48.38,18.91-72.49,18.91h-.04c-9.58,0-19.09-.78-28.44-2.09-10.07-1.41-19.91-2.09-29.57-2.09h-.03c-41.78,0-80.23,12.58-119.14,32.2-.13.06-.25.13-.38.19-.09.05-.18.09-.27.14-.13.07-.26.13-.39.2-.21.11-.42.21-.63.32-31.03,15.8-61.59,33.18-96.59,39.84-18.83,3.58-37.26,4.59-55.7,4.59h-.04c-12.93,0-25.86-.49-38.95-.94-.04,0-.09,0-.14,0-.16,0-.32-.01-.48-.02-.28,0-.56-.02-.84-.03-.53-.02-1.05-.04-1.58-.05-.47-.02-.93-.03-1.4-.05-.5-.02-.99-.03-1.49-.05-.17,0-.36-.01-.53-.02-26.06-.85-52.16-1.6-78.22-1.6h-.04c-56.09,0-112.09,3.46-167.46,16.79-.05.01-.1.03-.16.04h0c-16.82,4.03-34.17,5.17-51.06,8.89,0,0-.01,0-.02,0-.05.01-.1.02-.15.03,0,0,0,0,0,0-.04,0-.09.02-.13.03,0,0-.02,0-.02,0-.04,0-.09.02-.13.03,0,0-.02,0-.03,0-.04,0-.07.01-.11.02-.02,0-.04,0-.05.01-.03,0-.07.02-.1.02-.02,0-.04,0-.05.01-.04,0-.07.02-.11.02-.01,0-.03,0-.04,0-.04,0-.07.02-.11.03-.02,0-.03,0-.05.01-.03,0-.06.01-.09.02-.02,0-.04,0-.06.01-.03,0-.06.01-.09.02-.02,0-.04.01-.07.01-.03,0-.05.01-.08.02-.03,0-.05.01-.08.02-.03,0-.05.01-.08.02-.03,0-.06.01-.08.02-.02,0-.04,0-.07.01-.03,0-.06.01-.09.02-.02,0-.04,0-.07.01-.03,0-.06.01-.09.02-.02,0-.04,0-.06.01-.03,0-.06.01-.1.02-.02,0-.04,0-.06.01-.03,0-.07.01-.1.02-.01,0-.03,0-.05.01-.04,0-.07.02-.11.02-.02,0-.04,0-.05.01-.04,0-.07.02-.11.03-.01,0-.03,0-.05.01-.04,0-.07.02-.11.03-.02,0-.03,0-.05.01-.04,0-.08.02-.11.03-.01,0-.02,0-.03,0-.04.01-.08.02-.13.03h-.03s-.08.03-.12.04c-.01,0-.02,0-.03,0-.04.01-.09.02-.13.03,0,0-.02,0-.03,0-.05.01-.1.02-.15.04,0,0,0,0,0,0-.05.01-.1.02-.15.04,0,0,0,0,0,0-8.77,2.16-17.4,5.14-25.72,9.71,2.65.95,5.29,1.99,7.93,3.07,11.06,4.53,22.06,9.72,33.43,11.21,73.78,9.61,147.68,18.44,221.62,26.24.51.05,1.02.11,1.52.16,28.98,3.16,57.03,9.34,84.01,19.69,19.09,7.32,37.63,16.73,55.58,28.64,13.36,8.86,26.84,17.48,40.33,26.07,8.84,5.62,17.68,11.23,26.5,16.89,23.27,19.48,48.01,25.15,73.22,25.15,21.88,0,44.11-4.27,66.05-7.48,10.97-1.61,21.86-4.04,32.7-6.86,18.87-4.92,37.61-11.01,56.47-15.98.14-.06.28-.13.42-.19,48.21-21.44,96.41-37.37,147.84-38.95,2.8-.09,5.6-.13,8.41-.13,11.53,0,23.22.73,35.12,2.3,5.62.74,11.23,1.47,16.84,2.21,25.61,3.35,51.13,6.78,76.49,11.18,32.25,5.6,64.23,12.78,95.82,23.44,12.53,4.23,25.07,6.03,37.64,6.03,1.43,0,2.87-.02,4.31-.07,13.4-.43,26.84-2.83,40.33-6.41,6.18-1.64,12.26-3.63,18.3-5.78,19.68-7.02,38.9-15.72,59.64-19.32,8.59-1.49,17.16-2.39,25.7-2.89h0s.05,0,.07,0c4.34-.25,8.67-.39,13-.45,1.58-.02,3.17-.03,4.75-.03,17,0,33.97,1.16,50.96,2.1,7.74.43,15.49.81,23.25,1.01,9.24.25,18.48.36,27.73.36,20.27,0,40.55-.52,60.83-1.24v-276.58c-43.71,21.04-88.74,33.11-135.63,33.11h-.04c-13.12,0-26.38-.95-39.79-2.9-.37-.05-.74-.11-1.12-.16-.16-.02-.33-.05-.49-.07-3.49-.49-7-.69-10.52-.69h-.03c-8.87,0-17.86,1.27-26.85,2.4-.31.04-.62.08-.93.12-.16.02-.31.04-.47.06-30.22,3.74-60.5,9.23-90.72,9.23h-.04c-23.6,0-47.16-3.35-70.6-13.49-.12-.05-.24-.11-.37-.16-.2-.09-.41-.18-.61-.27-.06-.03-.13-.06-.19-.08-6.31-2.75-12.93-3.88-19.63-3.88h-.04c-7.63,0-15.37,1.46-22.88,3.66-.03,0-.06.02-.09.03-.17.05-.34.1-.51.15-.05.01-.1.03-.16.05,0,0,0,0-.01,0-.05.01-.1.03-.15.04-.03,0-.07.02-.1.03-6.8,2-13.96,3.63-20.77,3.64h-.04c-4.75,0-9.32-.79-13.48-2.8-30.65-14.82-65.58-7.46-95.24-26.81-3.72-2.43-7.77-3.46-11.87-3.46h-.01Z"/><path class="cls-4" d="M0,173.26v213.64c5.32,2.73,10.56,5.75,15.74,9.06,1.16.74,2.32,1.5,3.48,2.27,0,0,.02.01.03.02.04.03.09.06.14.09.01,0,.02.01.03.02.04.03.09.06.13.09.01,0,.03.02.04.03.04.03.08.05.12.08.01,0,.03.02.04.03.04.03.08.05.12.08.01.01.03.02.04.03.04.03.08.05.12.08.01.01.03.02.05.03.04.03.08.05.11.08.02.01.04.02.06.04.04.02.07.05.11.07.02.01.04.03.06.04.03.02.07.05.1.07.02.01.04.03.06.04.04.02.07.05.11.07.02.01.03.02.05.03.04.03.08.05.11.08.02.01.03.02.05.03.04.03.07.05.11.08.02.01.04.02.06.04.04.03.07.05.11.07.02.01.04.02.05.04.04.03.07.05.11.08.02.01.03.02.05.03.04.03.08.05.11.08.02.01.04.02.05.04.03.02.07.04.1.07.02.02.04.03.07.05.03.02.06.04.09.06.02.02.04.03.07.05.03.02.07.04.1.07.02.02.04.03.07.04.03.02.07.05.1.07.02.01.04.03.06.04.03.02.07.04.1.07.02.02.05.03.07.05.03.02.06.04.09.07.02.02.04.03.07.05.03.02.07.05.1.07.02.01.05.03.07.05.03.02.07.05.1.07.02.01.04.03.06.04.04.02.07.05.11.08.02.01.04.02.05.04.04.03.07.05.11.08.02.01.04.03.05.04.03.02.07.05.1.07.02.01.04.03.07.05.03.02.07.05.1.07.02.01.04.03.06.04.05.03.09.07.14.1,0,0,.01,0,.02.01.05.04.11.08.16.12h.02c36.12,17.69,72.48,34.81,108.31,53.28.1.05.2.1.3.15.23.12.47.24.7.36.08.04.15.08.23.12.13.07.25.13.38.2,18.57,9.47,37.08,16.9,56.46,16.9h.04c9.18,0,18.55-1.67,28.22-5.57.06-.02.11-.04.17-.07.02,0,.05-.02.07-.03,0,0,.02,0,.02,0,.02,0,.05-.02.07-.03.02,0,.04-.01.06-.02,1.76-.68,3.61-1,5.49-1h.06c4.27.01,8.7,1.67,12.7,4.5.03.02.06.04.1.07,0,0,0,0,0,0,.03.02.06.04.09.07.1.07.2.14.3.22,28.29,20.93,61.81,30.28,89.19,53.41,8.66,7.29,18.63,9.48,29.01,9.48.6,0,1.21,0,1.81-.02.02,0,.04,0,.06,0,.87-.02,1.74-.06,2.61-.1.17-.05.35-.11.52-.16,22.65-6.77,45.56-9.65,68.58-9.65h.02c11.91,0,23.85.77,35.8,2.17.35.04.7.08,1.05.12.36.04.72.09,1.08.13.29.04.59.07.88.11.15.02.31.04.46.06.04,0,.07,0,.11.01.12.01.25.03.38.05.59.07,1.18.14,1.77.22.1.01.2.02.3.04.14.02.28.03.41.05,24.32,3.01,48.62,6.53,72.73,6.53h.02c27.24,0,54.26-4.51,80.8-19.34.08-.04.15-.08.22-.12,9.44-5.28,21.05-5.39,32.11-6.45,37.49-3.55,74.75-12.17,112.21-13.16.27,0,.54-.02.8-.02,10.36-.34,20.73-1.84,31.11-3.4,12.95-1.95,25.92-4,38.89-4h.04c11.06,0,22.12,1.49,33.2,5.79.18.07.35.14.53.2,5.36,2.01,10.54,2.89,15.59,2.89h.04c12.34,0,23.94-5.26,35.66-12.08.09-.05.18-.11.28-.16.05-.03.1-.06.15-.09.24-.14.47-.27.71-.41t0,0c.3-.17.6-.34.9-.51,27.03-15.43,55.58-26.08,85.64-26.09h.03c3,0,6.02.11,9.06.33,5.27.38,10.5.56,15.68.56h.03c58.21,0,111.35-22.87,163.93-49.25.05-.03.1-.05.16-.08.67-.34,1.35-.68,2.02-1.02.34-.17.67-.34,1.01-.51.17-.09.35-.18.52-.28.04-.02.08-.04.12-.06.06-.03.13-.07.19-.1,19.24-10.14,38.55-14.12,58.13-14.13h.02s.01,0,.02,0c17.84,0,35.88,3.31,54.27,8.27,50.6,13.65,102.91,12.02,154.54,16.35.11,0,.21.02.32.03.03,0,.05,0,.08,0,1.88.15,3.75.23,5.62.23h.05c10.2,0,20.12-2.39,29.22-8.68.07-.05.13-.09.2-.14,0,0,.02-.01.03-.02,0,0,.01,0,.02-.01.1-.07.21-.15.31-.22-28.79-16.42-61.32-10.65-91.36-20.46-20.29-6.63-40.56-11.99-59.46-23.8-38.49-24.06-81.09-33.83-123.89-37.33-18.36-1.5-36.78-2.7-55.13-2.7h-.04c-37.98,0-75.66,5.15-111.9,23.46-.09.05-.19.09-.28.14-.19.1-.38.19-.57.29-.13.07-.26.13-.39.2-.12.06-.23.12-.35.18-.18.09-.36.18-.54.28-17.7,8.97-35.09,13.75-53.57,13.75h-.04c-10.14,0-20.61-1.44-31.62-4.42-47.13-12.72-96.61-12.15-143.87-27.07-.07-.02-.13-.04-.2-.06-.02,0-.04-.01-.06-.02,0,0-.01,0-.02,0-.02,0-.04-.01-.06-.02-.05-.02-.1-.03-.15-.05-.1-.03-.19-.07-.29-.1-.02,0-.04-.01-.07-.02-.05-.02-.1-.04-.16-.06-.01,0-.03-.01-.04-.01-.82-.29-1.63-.61-2.44-.96-.04-.01-.07-.03-.11-.05-.12-.05-.24-.11-.36-.16-.02,0-.04-.02-.06-.02-.1-.04-.19-.09-.29-.13-.03-.01-.06-.02-.08-.04-.2-.09-.4-.18-.61-.28-7.35-3.41-14.35-8.37-22.49-8.38h-.02c-1.23,0-2.5.11-3.79.36h-12.91c-4.39-.21-8.77-.44-13.16-.7-.04-.05-.08-.1-.12-.15,0,0,0,0,0,0-3.39-4.25-7.82-4.65-12.26-4.65h-.02c-.59,0-1.18,0-1.77.01-.33,0-.67,0-1,0-1.79.01-3.58.02-5.37.02h-.04c-44.37,0-88.68-3.91-132.55-9.96-.18-.03-.37-.05-.55-.08-.2-.03-.4-.06-.6-.08-.59-.08-1.17-.16-1.76-.25-.22-.03-.43-.06-.65-.09-.88-.12-1.77-.25-2.65-.38-43.07-6.14-86.43-14.95-126.88-35.43-35.27-3.39-67.71-19.56-100.67-32.04-86.97-32.95-174.14-60.43-266.94-61.65-41.55-.53-83.1-.74-124.66-1.14"/><path class="cls-6" d="M1493.01,113.52c-8.5-3.31-16.84-4.78-25.08-4.78-12.46,0-24.66,3.37-36.76,8.85-42.84,19.32-87.37,32.3-131.32,47.51-3.77,1.29-7.73,2.15-11.68,3.13-.6.13-1.21.29-1.79.44-.99.26-1.95.54-2.91.83-.76.23-1.55.49-2.31.75-.76.26-1.52.54-2.26.86-.92.39-1.82.78-2.69,1.24-.34.16-.69.36-1.03.55-2.02,1.14-3.95,2.51-5.72,4.22-.44.44-.88.89-1.31,1.36,3.11.9,6.2,1.98,9.26,3.17,1.65.64,3.42.84,5.22.84,1.41,0,2.84-.12,4.27-.24,1.43-.12,2.84-.24,4.22-.24.42,0,.84.01,1.26.04,3.12.2,6.26.27,9.41.27,2.68,0,5.38-.05,8.07-.09,2.69-.05,5.39-.09,8.07-.09,7.55,0,15.01.37,22.23,2.15,18.84,4.62,37.41,7.84,55.87,7.84,19.95,0,39.76-3.76,59.66-13.56,17.2-8.5,36.52-11.14,54.73-17.12,28.31-9.34,58.45-12.07,85.03-27.81-33.96-8.01-69.27-7.22-102.43-20.09Z"/><path class="cls-1" d="M747.21,212.34c-.11-.03-.22-.07-.33-.1.11.03.22.07.33.1Z"/><path class="cls-1" d="M775.68,223.04c.09.04.17.07.26.11,0,0,0,0,0,0,0,0,0,0,0,0-.09-.04-.17-.07-.26-.11Z"/><path class="cls-1" d="M775.94,223.15c23.83,9.95,48.1,14.28,72.68,15.4-24.57-1.12-48.85-5.45-72.68-15.4h0Z"/><path class="cls-1" d="M891.28,237.75c-5.55.4-11.09.7-16.62.89,5.53-.19,11.07-.49,16.62-.89.34-.03.68-.05,1.02-.08,10.25-2.37,20.55-4.51,30.85-6.56-10.31,2.05-20.6,4.18-30.85,6.56-.34.03-.68.05-1.02.08Z"/><path class="cls-3" d="M1895.9,75.57c-13-1.71-21.34-13.5-32.11-20.07-10.19-6.21-19.43-15.04-31.46-15.04-.87,0-1.75.05-2.64.14-31.14,3.34-62.12,6.11-91.5,21.53-43.72,22.9-86.47,48.62-132.71,64.73-3.28,2.49-6.64,4.73-10.05,6.75q1.38.33,0,0c-26.58,15.73-56.72,18.46-85.03,27.81-18.2,5.98-37.53,8.63-54.73,17.12-19.9,9.81-39.72,13.56-59.66,13.56-18.46,0-37.03-3.22-55.87-7.84-7.22-1.78-14.69-2.15-22.23-2.15-2.68,0-5.38.05-8.07.09-2.69.05-5.38.09-8.07.09-3.15,0-6.29-.06-9.41-.27-.41-.03-.84-.04-1.26-.04-1.38,0-2.79.12-4.22.24-1.43.12-2.86.24-4.27.24-1.81,0-3.57-.2-5.22-.84-3.06-1.19-6.14-2.26-9.26-3.17,0,0,0,0,0,0-6.11-1.77-12.33-2.88-18.63-2.88-.6,0-1.2,0-1.8.03-38.97,1.32-77.96,2.65-116.94,3.98.74.65,1.27,1.26,1.5,1.78-31.28,13.08-74.75,16.84-106.75,26.69-33.68,10.35-68.1,16.23-102.37,23.05-10.31,2.05-20.6,4.19-30.85,6.56-.34.03-.68.05-1.02.08-5.55.4-11.09.7-16.62.89-4.09.14-8.17.23-12.25.23h-.04c-4.59,0-9.18-.11-13.75-.32-24.58-1.12-48.85-5.45-72.68-15.4h0s0,0,0,0h0s0,0,0,0c-.09-.04-.17-.07-.26-.11-.02,0-.05-.02-.07-.03-9.29-3.9-18.79-7.8-28.39-10.67-.11-.03-.22-.07-.33-.1,0,0,0,0-.01,0-5.83-1.73-11.7-3.07-17.6-3.81-.09-.01-.18-.02-.28-.03-.05,0-.09-.01-.14-.02-.04,0-.07,0-.11-.01-6.79-.84-13.55-1.32-20.29-1.32h-.04c-17.59,0-35,3.26-52.16,11.92-52.29,26.32-109.93,29.97-163.98,49.11,40.45,20.49,83.81,29.3,126.88,35.44.88.12,1.77.25,2.65.37.22.03.43.06.65.09.59.08,1.17.16,1.76.25.2.03.4.05.6.08.18.03.37.05.55.08,43.86,6.05,88.18,9.95,132.55,9.96h.04c1.79,0,3.58,0,5.37-.02.33,0,.67,0,1,0,.59,0,1.18-.01,1.77-.01h.02c4.44,0,8.87.41,12.26,4.65,0,0,0,0,0,0,.04.05.08.1.12.15,4.39.26,8.77.49,13.16.7h12.91c1.29-.25,2.55-.37,3.79-.37h.02c8.14,0,15.14,4.97,22.49,8.38.2.09.4.19.61.28.03.01.06.03.08.04.09.04.19.09.29.13.02,0,.04.02.06.03.12.05.24.11.37.16.04.02.07.03.11.05.81.35,1.62.67,2.44.96.02,0,.03.01.04.02.05.02.11.04.16.05.02,0,.04.01.07.02.1.03.19.07.29.1.05.02.1.03.15.05.02,0,.04.01.06.02,0,0,.01,0,.02,0,.02,0,.04.01.06.02.07.02.13.04.2.06,47.26,14.92,96.74,14.35,143.87,27.07,11.01,2.98,21.48,4.42,31.62,4.42h.04c18.47,0,35.87-4.79,53.57-13.76.18-.09.36-.18.55-.28.12-.06.23-.12.35-.18.13-.07.26-.13.4-.2.19-.1.38-.19.57-.29.09-.05.19-.09.28-.14,36.24-18.31,73.91-23.46,111.9-23.46h.04c18.35,0,36.76,1.2,55.13,2.7,42.8,3.5,85.4,13.26,123.89,37.33,18.9,11.81,39.17,17.17,59.46,23.8,30.04,9.82,62.57,4.04,91.36,20.46,35.33-6.48,70.47-14.32,105.89-20.33,4.81-.82,9.64-1.11,14.47-1.11h.04c4.79,0,9.58.28,14.35.59.01,0,.02,0,.03,0,.29.02.59.04.88.06.29.02.57.04.86.06.3.02.6.04.9.06.17.01.34.02.51.03.07,0,.14,0,.2.01,4.81.31,9.6.6,14.34.6h.04c8.34,0,16.54-.89,24.5-4.04.21-.08.42-.17.64-.26,33.9-13.99,69.46-21.32,103.07-35.69.11-.05.22-.09.33-.14.22-.1.45-.19.67-.29.24-.1.47-.2.71-.3.08-.04.16-.07.25-.11.06-.03.12-.05.18-.08,38.2-16.3,76.12-30.06,116.71-30.07,0,0,.02,0,.03,0h0c8.63,0,17.39.63,26.29,1.98V104.45c-13.21-8.97-26.09-18.73-38.85-28.88Z"/><path class="cls-6" d="M747.21,212.34c9.61,2.87,19.1,6.76,28.39,10.67.02,0,.05.02.07.03-.02,0-.05-.02-.07-.03-9.3-3.9-18.79-7.8-28.4-10.67Z"/><polygon class="cls-6" points="775.94 223.15 775.94 223.15 775.94 223.15 775.94 223.15"/><path class="cls-6" d="M746.87,212.24s0,0,.01,0c0,0,0,0-.01,0Z"/><path class="cls-6" d="M862.4,238.86h-.03c-4.6,0-9.18-.11-13.75-.32,4.57.21,9.16.32,13.75.32h.04c4.08,0,8.16-.09,12.25-.23-4.09.14-8.17.23-12.25.23h0Z"/><path class="cls-6" d="M1130.77,179.6c-3.44-3.06-11.31-7.2-13.01-8.27-37.33-22.98-74.3-46.88-112.48-67.84-18.88-10.37-39.03-18.66-60.23-18.65-4.63,0-9.31.39-14.04,1.25-33.83,6.14-68.74,9.07-100.89,21.4-17.86,6.85-35.29,9.2-52.67,9.2-16.09,0-32.15-2.02-48.49-4.36-23.12-3.3-46.53-8.95-69.55-8.95-3.54,0-7.08.13-10.6.43-37.02,3.11-73.87,13.91-107.64,32.17-30.81,16.67-61.47,25.17-91.76,25.17-32.85,0-65.27-10-96.98-30.4-31.68-20.42-62.93-31.26-95.89-31.26-17.05,0-34.55,2.9-52.8,8.88-22.92,7.5-46.27,14.57-69.78,14.57-19.18,0-38.46-4.7-57.68-17.7C52.17,88.93,26.48,77.68,0,69.13v104.12c41.56.39,83.11.6,124.66,1.13,92.8,1.22,179.97,28.7,266.94,61.65,32.96,12.48,65.4,28.65,100.67,32.04,54.06-19.14,111.7-22.79,163.98-49.11,17.16-8.66,34.58-11.92,52.16-11.92h.04c6.74,0,13.51.48,20.29,1.32.04,0,.07,0,.11.01.05,0,.09.01.14.02.09.01.18.02.28.03,5.9.74,11.77,2.08,17.6,3.81,0,0,0,0,.01,0,.11.03.22.07.33.1,9.61,2.87,19.1,6.76,28.4,10.67.02,0,.05.02.07.03.09.04.17.07.26.11,0,0,0,0,0,0,0,0,0,0,0,0,23.83,9.94,48.1,14.28,72.68,15.4,4.58.21,9.16.32,13.75.32h.04c4.08,0,8.16-.09,12.25-.23,5.53-.19,11.07-.49,16.62-.89.34-.03.68-.05,1.02-.08,10.25-2.37,20.55-4.5,30.85-6.56,34.27-6.82,68.69-12.69,102.37-23.05,31.99-9.84,75.47-13.61,106.75-26.69-.23-.52-.77-1.12-1.5-1.78Z"/></g></svg>