<svg width="370" height="59" viewBox="0 0 370 59" fill="none" xmlns="http://www.w3.org/2000/svg">
<g clip-path="url(#clip0_165_8)">
<path d="M73.63 16.0938C73.63 16.0938 70.9095 16.2255 68.7683 16.2255C67.1444 16.2255 64.5839 16.1118 64.2638 16.1118C63.9437 16.1118 63.8444 16.3018 63.8444 16.5361V16.7289C63.8444 16.9439 64.0029 17.1242 64.2142 17.1506C66.7485 17.4529 67.0548 18.5154 67.0548 21.3364V34.2074C67.0548 37.0299 67.0243 37.6568 64.3811 37.8898C64.1645 37.9092 63.9962 38.0937 63.9962 38.3128V38.4904C63.9962 38.7262 64.1025 38.9148 64.4183 38.9148C64.7341 38.9148 64.4334 38.9148 64.4418 38.9134C65.2916 38.8663 67.2189 38.7692 68.9945 38.7692C70.8127 38.7692 73.6534 38.9176 73.9596 38.9176C74.2672 38.9176 74.3791 38.7289 74.3791 38.4932V38.3102C74.3791 38.0924 74.2149 37.9108 73.9998 37.8885C71.4006 37.6305 71.0944 36.7248 71.0944 33.9038V29.528C71.0944 29.2326 71.333 28.9927 71.6268 28.9927H71.8752C73.6673 28.9927 74.3019 29.4143 74.9737 30.4337C76.0567 32.1563 77.3631 34.3005 78.5952 35.9524C80.2755 38.2368 81.7682 39.0452 84.9428 39.1868C85.249 39.2104 85.5374 39.2174 85.8202 39.22H85.8271C86.0491 39.22 86.2492 39.1063 86.2975 38.865C86.3554 38.5779 86.1306 38.4322 85.9374 38.3282C85.0972 37.8761 84.5771 37.4961 83.7481 36.6555C82.8886 35.7776 82.1049 34.8275 80.7599 32.9648C79.7348 31.5168 78.4988 29.6528 77.8102 28.485C77.7165 28.3241 77.7867 28.1202 77.9565 28.0426C80.5059 26.8887 82.5188 25.1341 82.5188 22.2312C82.5188 20.0871 81.5475 18.2368 80.0175 17.3243C78.598 16.4103 76.4665 16.0938 73.63 16.0938ZM71.9055 27.396C71.4571 27.396 71.0942 27.0312 71.0942 26.5804V19.1504C71.0942 18.2364 71.2059 17.8495 71.4668 17.6401C71.7661 17.4279 72.0614 17.2879 73.1444 17.2879C75.8319 17.2879 78.409 18.6942 78.409 22.4904C78.409 24.3531 77.8102 25.4558 76.4293 26.5098C75.4967 27.213 74.2648 27.396 72.434 27.396H71.9055Z" fill="white"/>
<path d="M88.4663 26.9157C88.4663 33.2055 91.6491 37.9558 96.3756 37.9558C100.048 37.9558 103.129 34.7783 103.129 28.2485C103.129 21.1058 99.7419 17.2431 95.3561 17.2431C91.6491 17.2431 88.4663 20.5926 88.4663 26.9157ZM107.086 27.3263C107.086 34.709 101.917 39.2207 95.6624 39.2207C89.4072 39.2207 84.5097 34.3678 84.5097 27.8047C84.5097 21.7214 88.7933 15.978 96.0363 15.978C101.917 15.978 107.086 20.4899 107.086 27.3263Z" fill="white"/>
<path d="M154.952 26.9157C154.952 33.2055 158.135 37.9558 162.861 37.9558C166.533 37.9558 169.614 34.7783 169.614 28.2485C169.614 21.1058 166.227 17.2431 161.842 17.2431C158.135 17.2431 154.952 20.5926 154.952 26.9157ZM173.571 27.3263C173.571 34.709 168.403 39.2207 162.148 39.2207C155.893 39.2207 150.995 34.3678 150.995 27.8047C150.995 21.7214 155.279 15.978 162.522 15.978C168.403 15.978 173.571 20.4899 173.571 27.3263Z" fill="white"/>
<path d="M118.094 29.2555H113.03C112.729 29.2555 112.521 28.9614 112.626 28.6854C113.753 25.7187 115.64 20.612 115.64 20.612L118.501 28.6924C118.598 28.9684 118.391 29.2555 118.094 29.2555ZM150.773 16.257C150.465 16.257 149.261 16.4068 147.236 16.4068C145.21 16.4068 143.569 16.257 143.307 16.257C143.045 16.257 142.912 16.4303 142.912 16.644V16.9048C142.912 17.1072 143.072 17.275 143.278 17.2917C145.455 17.4596 146.182 17.9727 146.346 19.4276C146.449 20.4387 146.589 22.0421 146.589 25.2125V31.7978C146.589 32.3609 146.004 32.4441 145.573 31.9809L132.471 16.5496C132.317 16.3637 132.107 16.2568 131.843 16.2568C131.579 16.2568 131.253 16.3289 130.004 16.3289C128.756 16.3289 127.454 16.2568 127.152 16.2568C126.848 16.2568 126.699 16.4551 126.699 16.7007V16.8657C126.699 17.0931 126.876 17.2805 127.105 17.3068C128.457 17.4607 129.366 17.9947 129.904 18.8546C130.46 19.7436 130.632 21.8754 130.632 24.3483V28.8116C130.632 31.9836 130.493 33.6563 130.389 34.7368C130.218 36.3804 129.409 37.8866 127.772 37.8866C126.137 37.8866 125.5 37.064 124.361 34.3081C123.29 31.7186 117.788 18.0238 116.98 16.0114C116.92 15.8631 116.774 15.6162 116.61 15.6162H116.571C116.408 15.6162 116.262 15.7133 116.203 15.8603L108.736 34.2736C107.551 37.1571 107.067 37.5441 105.067 37.8409C104.838 37.8756 104.668 38.067 104.668 38.293V38.4511C104.668 38.7035 104.813 38.9074 105.133 38.9074C105.454 38.9074 106.674 38.759 108.529 38.759C110.386 38.759 111.716 38.9074 112.087 38.9074C112.457 38.9074 112.552 38.7035 112.552 38.4511V38.3054C112.552 38.0737 112.374 37.8796 112.141 37.8518C109.828 37.5758 109.639 37.1556 110.32 35.1444C110.748 33.8365 111.206 32.5299 111.694 31.1708C111.777 30.9419 111.998 30.7879 112.243 30.7879H118.62C118.992 30.7879 119.326 31.0168 119.454 31.3608C120.111 33.1014 120.637 34.4593 121.027 35.6547C121.455 36.9294 120.751 37.5299 119.558 37.8226C119.354 37.8725 119.212 38.0569 119.212 38.2649V38.4508C119.212 38.7031 119.359 38.907 119.676 38.907C121.249 38.907 123.639 38.7587 127.672 38.7587C131.706 38.7587 134.841 38.907 135.182 38.907C135.523 38.907 135.627 38.7114 135.627 38.4701V38.3038C135.627 38.0749 135.448 37.8877 135.216 37.8682C133.144 37.6949 132.46 37.018 132.297 35.4133C132.192 34.4022 132.089 32.7295 132.089 29.5576V21.9169C132.089 21.6561 132.423 21.541 132.589 21.7436L146.682 38.6992C146.798 38.8407 146.973 38.9224 147.158 38.9224H147.433C147.771 38.9224 148.045 38.6534 148.045 38.3205V25.2124C148.045 22.007 148.149 20.4385 148.253 19.358C148.415 17.9239 149.124 17.4358 150.803 17.2914C151.008 17.2747 151.167 17.1083 151.167 16.9058V16.6436C151.167 16.43 151.081 16.257 150.773 16.257Z" fill="white"/>
<path d="M214.074 33.2828L214.046 33.2772C213.853 33.2411 213.669 33.4615 213.569 33.6309C212.858 34.8348 212.15 35.5657 211.472 36.1913C210.447 37.1359 208.724 37.6531 206.769 37.6531C205.068 37.6531 204.616 37.6531 203.943 37.2356C203.306 36.8167 203.092 36.015 203.092 34.377V28.3826C203.092 28.1329 203.295 27.9305 203.544 27.9305H205.985C208.919 27.9305 209.183 28.1205 209.598 30.2703C209.637 30.4685 209.809 30.6142 210.011 30.6142H210.157C210.389 30.6142 210.578 30.4255 210.578 30.1925C210.578 30.1925 210.429 28.3978 210.429 27.1717C210.429 25.9442 210.578 24.3091 210.578 24.3091C210.578 24.076 210.389 23.8874 210.157 23.8874H210.012C209.811 23.8874 209.637 24.0331 209.6 24.2327C209.22 26.2506 208.086 26.5017 205.094 26.5017H203.654C203.344 26.5017 203.092 26.2493 203.092 25.9386V18.965C203.092 17.9192 203.2 17.5101 204.334 17.5101H206.85C209.295 17.5101 210.433 18.0413 210.964 18.8082C211.382 19.4421 211.563 19.904 211.863 21.1064C211.917 21.3185 212.123 21.4559 212.338 21.4225L212.44 21.4101C212.657 21.3754 212.81 21.1813 212.793 20.9635C212.739 20.2547 212.664 19.4947 212.664 18.7568C212.664 18.0135 212.774 17.367 212.749 16.865C212.733 16.5223 212.607 16.2561 212.101 16.2561C211.594 16.2561 204.238 16.338 201.701 16.338C199.164 16.338 197.31 16.2561 196.954 16.2561C196.598 16.2561 196.536 16.4448 196.536 16.6763V16.883C196.536 17.1008 196.7 17.2811 196.915 17.3019C199.248 17.5308 199.535 17.8026 199.535 20.7513V34.5169C199.535 37.374 197.855 37.8969 196.634 37.8969C195.414 37.8969 194.42 37.3047 192.563 35.3879C190.791 33.4351 187.523 29.8456 184.932 26.7195C184.551 26.2589 184.444 25.6252 184.862 25.1619C186.762 23.0633 188.516 21.3394 189.806 20.0786C191.001 18.9094 192.174 17.5488 194.453 17.3032C194.665 17.2811 194.828 17.1008 194.828 16.8858V16.6765C194.828 16.4448 194.737 16.2563 194.41 16.2563C194.083 16.2563 193.391 16.4061 191.49 16.4061C189.587 16.4061 187.865 16.2563 187.589 16.2563C187.314 16.2563 187.171 16.445 187.171 16.6765V16.8997C187.171 17.1091 187.326 17.288 187.533 17.3158L187.936 17.3712C189.609 17.5805 189.646 17.9634 188.591 19.1479C187.062 21.03 184.917 23.2948 182.842 25.2464C182.014 25.9842 181.515 26.4433 180.904 26.7082C180.669 26.8109 180.407 26.6361 180.407 26.3795V21.4182C180.407 18.4667 180.704 17.507 183.114 17.2976C183.332 17.2782 183.5 17.0978 183.5 16.8787V16.6763C183.5 16.4446 183.412 16.2561 183.082 16.2561C182.751 16.2561 180.424 16.4059 178.724 16.4059C177.026 16.4059 174.26 16.2561 173.977 16.2561C173.694 16.2561 173.559 16.4448 173.559 16.6763V16.8815C173.559 17.0993 173.726 17.2796 173.942 17.3004C176.463 17.5334 176.761 18.4266 176.761 21.4182V33.3322C176.761 36.2143 176.466 37.6526 174.091 37.8648C173.873 37.8842 173.704 38.0631 173.704 38.2837V38.4861C173.704 38.7191 173.8 38.9063 174.123 38.9063C174.445 38.9063 176.543 38.758 178.799 38.758C181.056 38.758 183.016 38.9063 183.3 38.9063C183.586 38.9063 183.72 38.7191 183.72 38.4861V38.2863C183.72 38.0657 183.549 37.8841 183.329 37.8674C180.705 37.6553 180.407 36.2267 180.407 33.3321V28.1782C180.407 27.9549 180.598 27.7829 180.818 27.801C181.252 27.8357 181.698 28.0937 182.336 28.8357C185.223 32.2115 188.099 35.6165 190.562 38.3488C190.951 38.7801 191.411 39.0257 192.083 39.0257C192.754 39.0257 199.865 38.7441 201.384 38.7441C202.903 38.7441 207.13 39.0257 210.894 39.0257C212.342 39.0257 213.261 38.3697 213.587 37.6776C214.144 36.4931 214.336 35.3558 214.42 33.7691C214.432 33.5361 214.304 33.3203 214.074 33.2828Z" fill="white"/>
<path d="M369.656 33.2428L369.628 33.2372C369.436 33.2012 369.255 33.4203 369.155 33.5894C368.451 34.7877 367.75 35.5132 367.077 36.136C366.06 37.0762 364.352 37.5909 362.417 37.5909C360.731 37.5909 360.284 37.5909 359.616 37.1748C358.984 36.7587 358.773 35.9612 358.773 34.3316V28.3678C358.773 28.1181 358.973 27.917 359.22 27.917H361.638C364.547 27.917 364.807 28.1057 365.22 30.2457C365.259 30.4427 365.43 30.5869 365.63 30.5869H365.775C366.004 30.5869 366.19 30.3997 366.19 30.1693C366.19 30.1693 366.042 28.3828 366.042 27.1624C366.042 25.942 366.19 24.3136 366.19 24.3136C366.19 24.0819 366.004 23.8947 365.775 23.8947H365.631C365.431 23.8947 365.259 24.0404 365.221 24.2374C364.845 26.2458 364.057 26.4953 361.092 26.4953H359.329C359.021 26.4953 358.773 26.2456 358.773 25.9364V18.996C358.773 17.9558 358.879 17.5494 360.002 17.5494H362.497C364.919 17.5494 366.046 18.0779 366.573 18.8406C366.989 19.4716 367.167 19.9307 367.466 21.1276C367.518 21.3385 367.721 21.4757 367.935 21.441L368.037 21.4299C368.251 21.3952 368.403 21.2025 368.386 20.9847C368.334 20.2801 368.258 19.5242 368.258 18.7906C368.258 18.0499 368.367 17.4065 368.343 16.9086C368.327 16.5674 368.159 16.3025 367.701 16.3025C366.189 16.3025 359.99 16.4551 357.701 16.4551C355.412 16.4551 353.555 16.3025 352.755 16.3025C352.456 16.3025 352.339 16.4897 352.339 16.7199V16.9251C352.339 17.1414 352.504 17.3218 352.717 17.3427C355.038 17.57 355.324 17.8406 355.324 20.7741V34.4702C355.324 36.7559 353.862 37.5409 352.657 37.76C352.461 37.7961 352.319 37.9722 352.319 38.1733V38.3216C352.319 38.5588 352.515 38.7503 352.751 38.7433C354.14 38.7045 355.775 38.6767 357.05 38.6767C361.087 38.6767 362.658 38.9568 366.504 38.9568C367.941 38.9568 368.85 38.3049 369.173 37.6157C369.725 36.4381 369.916 35.305 369.999 33.728C370.012 33.495 369.885 33.2802 369.656 33.2428Z" fill="white"/>
<path d="M251.637 26.9214C251.637 33.2153 254.822 37.9685 259.551 37.9685C263.225 37.9685 266.309 34.7881 266.309 28.2556C266.309 21.1085 262.919 17.2432 258.531 17.2432C254.822 17.2432 251.637 20.5941 251.637 26.9214ZM270.267 27.3318C270.267 34.7188 265.096 39.2332 258.837 39.2332C252.578 39.2332 247.678 34.3775 247.678 27.8102C247.678 21.7229 251.965 15.9768 259.211 15.9768C265.096 15.9768 270.267 20.4927 270.267 27.3318Z" fill="white"/>
<path d="M326.786 33.2428L326.758 33.2372C326.567 33.2012 326.386 33.4203 326.287 33.5894C325.582 34.7877 324.881 35.5132 324.208 36.136C323.191 37.0762 321.483 37.5909 319.547 37.5909C317.862 37.5909 317.415 37.5909 316.747 37.1748C316.115 36.7587 315.904 35.9612 315.904 34.3316V28.3678C315.904 28.1181 316.104 27.917 316.351 27.917H318.769C321.677 27.917 321.938 28.1057 322.351 30.2457C322.389 30.4427 322.56 30.5869 322.76 30.5869H322.905C323.134 30.5869 323.321 30.3997 323.321 30.1693C323.321 30.1693 323.173 28.3828 323.173 27.1624C323.173 25.942 323.321 24.3136 323.321 24.3136C323.321 24.0819 323.134 23.8947 322.905 23.8947H322.762C322.562 23.8947 322.389 24.0404 322.352 24.2374C321.975 26.2458 321.188 26.4953 318.223 26.4953H316.46C316.152 26.4953 315.904 26.2456 315.904 25.9364V18.996C315.904 17.9558 316.01 17.5494 317.133 17.5494H319.627C322.05 17.5494 323.177 18.0779 323.704 18.8406C324.119 19.4716 324.297 19.9307 324.597 21.1276C324.649 21.3385 324.852 21.4757 325.066 21.441L325.168 21.4299C325.382 21.3952 325.534 21.2025 325.517 20.9847C325.465 20.2801 325.389 19.5242 325.389 18.7906C325.389 18.0499 325.498 17.4065 325.474 16.9086C325.458 16.5674 325.289 16.3025 324.831 16.3025C323.319 16.3025 317.121 16.4551 314.832 16.4551C312.543 16.4551 310.686 16.3025 309.886 16.3025C309.587 16.3025 309.471 16.4897 309.471 16.7199V16.9251C309.471 17.1414 309.635 17.3218 309.848 17.3427C312.169 17.57 312.455 17.8406 312.455 20.7741V34.4702C312.455 36.7559 310.993 37.5409 309.788 37.76C309.593 37.7961 309.45 37.9722 309.45 38.1733V38.3216C309.45 38.5588 309.646 38.7503 309.882 38.7433C311.272 38.7045 312.906 38.6767 314.181 38.6767C318.218 38.6767 319.789 38.9568 323.636 38.9568C325.072 38.9568 325.981 38.3049 326.304 37.6157C326.856 36.4381 327.047 35.305 327.13 33.728C327.143 33.495 327.015 33.2802 326.786 33.2428Z" fill="white"/>
<path d="M307.648 33.2428L307.621 33.2372C307.473 33.2094 307.324 33.2815 307.25 33.4133C306.511 34.7171 305.775 35.4841 305.07 36.136C304.053 37.0762 302.345 37.5909 300.409 37.5909C298.724 37.5909 298.277 37.5909 297.609 37.1748C296.977 36.7587 296.766 35.9612 296.766 34.3316V20.0792C296.822 17.8656 297.256 17.5924 299.369 17.4093C299.6 17.39 299.776 17.1971 299.776 16.9655V16.7477C299.776 16.5008 299.624 16.3025 299.333 16.3025C299.041 16.3025 296.711 16.4856 295.03 16.4856C293.348 16.4856 290.978 16.3025 290.748 16.3025C290.519 16.3025 290.333 16.4897 290.333 16.7199V16.9251C290.333 17.1414 290.497 17.3218 290.709 17.3427C293.031 17.57 293.317 17.8406 293.317 20.7741V34.4702C293.317 36.7559 291.855 37.5409 290.65 37.76C290.454 37.7961 290.312 37.9722 290.312 38.1733V38.3216C290.312 38.5588 290.507 38.7503 290.743 38.7433C292.133 38.7045 293.768 38.6767 295.043 38.6767C299.08 38.6767 300.651 38.9568 304.497 38.9568C305.934 38.9568 306.843 38.3049 307.166 37.6157C307.723 36.427 307.912 35.2841 307.993 33.685C308.004 33.4714 307.857 33.2815 307.648 33.2428Z" fill="white"/>
<path d="M288.471 33.2428L288.443 33.2372C288.296 33.2094 288.147 33.2815 288.072 33.4133C287.334 34.7171 286.597 35.4841 285.892 36.136C284.876 37.0762 283.168 37.5909 281.232 37.5909C279.546 37.5909 279.099 37.5909 278.431 37.1748C277.8 36.7587 277.588 35.9612 277.588 34.3316V20.0792C277.645 17.8656 278.078 17.5924 280.192 17.4093C280.422 17.39 280.599 17.1971 280.599 16.9655V16.7477C280.599 16.5008 280.447 16.3025 280.156 16.3025C279.863 16.3025 277.533 16.4856 275.853 16.4856C274.171 16.4856 271.991 16.3025 271.57 16.3025C271.341 16.3025 271.155 16.4897 271.155 16.7199V16.9251C271.155 17.1414 271.319 17.3218 271.532 17.3427C273.854 17.57 274.139 17.8406 274.139 20.7741V34.4702C274.139 36.7559 272.677 37.5409 271.473 37.76C271.277 37.7961 271.135 37.9722 271.135 38.1733V38.3216C271.135 38.5588 271.329 38.7503 271.565 38.7433C272.956 38.7045 274.591 38.6767 275.865 38.6767C279.902 38.6767 281.473 38.9568 285.32 38.9568C286.756 38.9568 287.665 38.3049 287.988 37.6157C288.545 36.427 288.734 35.2841 288.816 33.685C288.827 33.4714 288.679 33.2815 288.471 33.2428Z" fill="white"/>
<path d="M350.603 28.3515C350.311 28.3515 349.278 28.5346 347.044 28.5346C344.81 28.5346 342.682 28.3515 342.378 28.3515C342.075 28.3515 341.982 28.5304 341.982 28.7495V28.9687C341.982 29.1754 342.141 29.3474 342.346 29.3654C345.336 29.6247 345.706 31.4153 345.706 33.7648V34.4667C345.706 35.7898 345.335 36.4473 344.693 36.7856C344.019 37.1587 343.007 37.3626 341.963 37.3626C336.182 37.3626 333.204 32.8189 332.823 27.3348L332.806 27.3361C332.782 26.9436 332.769 26.5442 332.769 26.1392C332.769 23.1517 333.528 20.8674 335.176 19.0894C336.462 17.6788 338.145 17.0742 339.926 17.0742C342.036 17.0742 343.551 17.7302 345.365 19.5097C346.434 20.536 347.523 22.7718 348.061 24.2614C348.163 24.5457 348.411 24.5457 348.568 24.5374C348.724 24.5292 348.786 24.5042 348.786 24.5042C348.992 24.4556 349.125 24.2601 349.097 24.0506C349.008 23.407 348.826 21.8537 348.727 20.7121C348.592 19.1615 348.556 18.0229 348.556 17.4846C348.556 17.2905 348.321 17.2115 348.204 17.21L348.128 17.2086C347.715 17.2086 347.618 18.1144 346.98 18.1144C346.805 18.1144 346.648 18.0657 346.387 17.9133C343.773 16.3876 342.528 15.9661 340.188 15.9661C337.188 15.9661 334.287 17.1756 332.308 19.2559C330.304 21.3959 328.913 24.4486 328.913 27.8703C328.913 29.0312 329.04 30.2642 329.281 31.2587C330.401 36.1144 334.073 39.2337 340.039 39.2337C343.717 39.2337 346.093 38.1588 347.758 37.2781C348.623 36.8204 348.989 36.457 348.946 35.7205C348.91 35.0756 348.874 34.8799 348.874 34.1422V32.5735C348.874 30.6637 349.023 29.6692 350.662 29.389C350.855 29.3571 350.999 29.1921 350.999 28.9951V28.7497C350.999 28.5306 350.896 28.3515 350.603 28.3515Z" fill="white"/>
<path d="M245.281 24.5047C245.281 24.5047 245.219 24.5283 245.062 24.5366C244.906 24.5449 244.658 24.5449 244.555 24.2606C244.017 22.771 242.929 20.5367 241.858 19.5102C240.045 17.7294 238.531 17.0734 236.421 17.0734C234.64 17.0734 232.957 17.6781 231.671 19.0885C230.023 20.8681 229.264 23.151 229.264 26.1399C229.264 29.3285 230.187 32.1828 231.902 34.2313C233.385 36.0109 235.573 37.119 237.94 37.119C241.762 37.119 244.114 35.3992 244.84 34.7764C244.98 34.6557 245.192 34.6654 245.324 34.7972L245.407 34.8804C245.598 35.0704 245.607 35.3825 245.423 35.5807C244.499 36.5753 241.536 39.2341 236.26 39.2341C229.962 39.2341 225.407 34.7015 225.407 28.0538C225.407 24.9304 226.759 21.4394 228.802 19.2564C230.782 17.1746 233.683 15.9666 236.684 15.9666C239.023 15.9666 240.268 16.3882 242.881 17.9138C243.143 18.0664 243.3 18.1149 243.474 18.1149C244.113 18.1149 244.211 17.2078 244.622 17.2078L244.699 17.2091C244.816 17.2119 245.05 17.291 245.05 17.4851C245.05 18.0232 245.087 19.162 245.222 20.7111C245.321 21.8527 245.503 23.406 245.592 24.0496C245.621 24.259 245.485 24.4561 245.281 24.5047Z" fill="white"/>
<path d="M39.768 12.2489C40.4209 12.2489 40.8779 11.8876 40.8779 11.3698C40.8779 10.8306 40.2196 10.5088 39.5827 10.1977L39.4958 10.155C39.0665 10.398 38.6839 10.7145 38.6839 11.3219C38.6839 11.876 39.1193 12.2489 39.768 12.2489Z" fill="white"/>
<path d="M39.9169 9.28088C40.1924 9.12742 40.5889 8.82578 40.5889 8.35812C40.5889 8.00969 40.2284 7.73584 39.7684 7.73584C39.3147 7.73584 38.9596 8.00969 38.9596 8.35812C38.9596 8.73533 39.4335 9.0358 39.9169 9.28088Z" fill="white"/>
<path d="M43.4907 41.4028V38.272C43.4907 37.9588 43.7757 37.6998 44.0598 37.6998H44.2559L44.2569 36.6812H39.5856L39.5866 37.6998H39.7827C40.0677 37.6998 40.3518 37.9588 40.3518 38.272V45.1601C41.5316 43.9623 42.5781 42.7103 43.4907 41.4028Z" fill="white"/>
<path d="M33.9442 15.9583L32.7518 17.4682H33.9442V15.9583Z" fill="white"/>
<path d="M34.7203 49.787V38.2719C34.7203 37.9585 35.0053 37.6986 35.2894 37.6986H35.4866V36.6809H30.8154L30.8164 37.6986H31.0125C31.2975 37.6986 31.5816 37.9585 31.5816 38.2719V51.6826C32.5684 51.1455 33.6297 50.5148 34.7203 49.787Z" fill="white"/>
<path d="M37.5316 34.037C36.76 34.037 36.1346 33.4083 36.1346 32.6326C36.1346 31.8578 36.76 31.2291 37.5316 31.2291C38.3022 31.2291 38.9276 31.8578 38.9276 32.6326C38.9276 33.4083 38.3022 34.037 37.5316 34.037ZM47.26 34.525L37.5359 27.6902L27.8139 34.525L28.1669 35.3806H46.8966L47.26 34.525Z" fill="white"/>
<path d="M31.789 24.3965V24.5073H48.1347V7.34888H46.654V23.6848H32.497C32.1058 23.6848 31.789 24.0033 31.789 24.3965Z" fill="white"/>
<path d="M26.3707 27.84H4.60857C4.6742 32.8452 7.00307 41.2167 14.7312 47.4729C14.7312 47.4729 16.0414 41.6375 14.0252 38.3682C12.944 36.6141 10.575 35.83 9.51404 36.8561V38.1049C8.05878 36.8347 8.07145 35.3056 8.51558 34.2037C9.05823 32.8568 11.7793 31.6121 11.7793 31.6121L11.5534 31.2284C22.3503 25.1736 23.9201 35.8607 26.3707 37.1405V27.84Z" fill="white"/>
<path d="M24.8111 53.4281C25.4217 53.6923 25.727 53.7968 26.3067 54.0323V43.1555C26.3067 43.1555 17.81 38.4124 17.81 43.7619C17.81 45.533 18.4132 48.5871 19.7053 50.8505C21.0875 51.7147 22.4411 52.3338 23.0675 52.6556C22.1676 50.0928 22.6382 48.1384 22.6382 48.1384C22.6382 48.1384 23.5922 51.3854 24.8111 53.4281Z" fill="white"/>
<path d="M34.59 14.0392H35.1179V17.4738C35.6001 17.4673 35.9107 17.4045 36.0772 16.9218L36.1079 16.8323H36.4905L36.3517 18.3912H35.1179L35.1169 18.4754C35.1137 18.8792 35.1116 19.1713 35.2409 19.3013C35.3268 19.3886 35.4878 19.4291 35.7487 19.4291H35.8822V19.9523H33.1815V19.4291H33.3139C33.5662 19.4291 33.7315 19.3854 33.8195 19.297C33.9531 19.1605 33.95 18.8783 33.9457 18.486C33.9457 18.4551 33.9457 18.4242 33.9447 18.3911H31.4262L31.2747 18.1491L34.59 14.0392ZM33.1655 12.3705H33.2991C33.4856 12.3705 33.6244 12.3216 33.7231 12.2213C33.9426 11.9964 33.9361 11.5447 33.9309 11.2143L33.9299 11.0778V8.9626C33.932 8.48948 33.933 8.20389 33.8419 8.11111C33.773 8.04183 33.5981 8.02793 33.2992 8.02793H33.1657V7.53249L35.1044 7.06681L35.1034 11.226C35.0991 11.5958 35.0948 12.0156 35.2995 12.2235C35.397 12.3226 35.539 12.3705 35.734 12.3705H35.8676V12.8937H33.1657L33.1655 12.3705ZM37.8537 8.50436C37.8537 7.68496 38.7123 7.01671 39.768 7.01671C40.8132 7.01671 41.6951 7.64759 41.6951 8.39456C41.6951 8.99765 41.1512 9.37916 40.6382 9.62854C41.2455 9.92273 41.9716 10.3692 41.9716 11.2238C41.9716 12.2084 41.0039 12.9789 39.7679 12.9789C38.5946 12.9789 37.5653 12.2041 37.5653 11.3219C37.5653 10.4747 38.2045 10.0282 38.7811 9.76182C38.2766 9.42728 37.8537 9.03718 37.8537 8.50436ZM41.8508 19.9545H37.576V19.4557L39.9514 17.3585C40.4125 16.9631 40.6987 16.4602 40.6987 16.0425C40.6987 14.9918 39.9493 14.8352 39.5021 14.8352C39.1746 14.8352 38.8206 15.0004 38.6212 15.2464C38.548 15.3359 38.4728 15.467 38.4495 15.6354C38.5597 15.5694 38.689 15.533 38.8237 15.533C39.2223 15.533 39.5455 15.8517 39.5455 16.2438C39.5455 16.637 39.2223 16.9557 38.8237 16.9557L38.7845 16.9578C38.1358 16.9578 37.6875 16.4698 37.6875 15.7728C37.6875 15.3445 37.8593 14.9172 38.1603 14.6017C38.4062 14.3439 38.8535 14.0369 39.5924 14.0369C40.6874 14.0369 41.8522 14.6741 41.8522 15.8538C41.8522 16.9152 40.8038 17.6878 40.7593 17.7208L39.3177 18.9558H41.1292C41.4949 18.9558 41.6962 18.651 41.7048 18.6383L41.7439 18.5776L42.1509 18.5766L41.8508 19.9545ZM28.1243 7.45477V25.2506H28.827C28.827 23.602 30.028 22.2647 31.6688 22.2647H45.2216V4.90479L30.8452 4.91553C29.3644 5.01889 28.1243 5.86806 28.1243 7.45477Z" fill="white"/>
<path d="M14.6381 13.3867C15.342 13.3867 15.9133 13.961 15.9133 14.6698C15.9133 15.3774 15.342 15.9517 14.6381 15.9517C13.9333 15.9517 13.362 15.3774 13.362 14.6698C13.362 13.9612 13.9333 13.3867 14.6381 13.3867ZM6.86112 15.9666C6.75305 15.9666 6.64596 15.9506 6.54102 15.9196C6.5346 15.9964 6.53148 16.0721 6.53148 16.1467C6.53148 17.7281 7.84478 18.6019 8.7531 18.6019C9.80782 18.6019 10.4872 17.7857 11.1443 16.996C11.7432 16.2778 12.3653 16.0774 13.2622 16.0455C13.2345 16.9162 13.0375 17.5799 12.3231 18.1811C11.5376 18.8417 10.7257 19.5258 10.7257 20.585C10.7257 21.4982 11.5949 22.8185 13.1679 22.8185C13.2421 22.8185 13.3174 22.8154 13.3947 22.8089C13.364 22.7034 13.348 22.5957 13.348 22.4871C13.348 21.7987 13.9279 21.2371 14.638 21.2371C15.3492 21.2371 15.9279 21.7987 15.9279 22.4871C15.9279 22.5957 15.912 22.7046 15.8812 22.8089C15.9575 22.8154 16.0327 22.8185 16.107 22.8185C17.6801 22.8185 18.5492 21.4982 18.5492 20.585C18.5492 19.5258 17.7373 18.8417 16.9519 18.1811C16.2375 17.579 16.0381 16.9535 16.0064 16.0519C16.8724 16.0807 17.5327 16.2778 18.1306 16.996C18.7878 17.7857 19.4683 18.6019 20.5218 18.6019C21.4302 18.6019 22.7435 17.7281 22.7435 16.1467C22.7435 16.0721 22.7403 15.9964 22.7339 15.9196C22.629 15.9494 22.5219 15.9655 22.4138 15.9655C21.729 15.9655 21.1704 15.3837 21.1704 14.6686C21.1704 13.9547 21.729 13.3718 22.4138 13.3718C22.5219 13.3718 22.6301 13.3879 22.7339 13.4186C22.7403 13.3419 22.7435 13.2663 22.7435 13.1916C22.7435 11.6101 21.4302 10.7363 20.5218 10.7363C19.4683 10.7363 18.7878 11.5526 18.1306 12.3422C17.5317 13.0604 16.9096 13.2609 16.0128 13.2928C16.0414 12.4221 16.2375 11.7583 16.9519 11.1572C17.7373 10.4966 18.5492 9.81342 18.5492 8.75324C18.5492 7.84008 17.6801 6.51978 16.107 6.51978C16.0329 6.51978 15.9575 6.52292 15.8812 6.52937C15.9108 6.63487 15.9268 6.74253 15.9268 6.85117C15.9268 7.5406 15.3481 8.10119 14.6368 8.10119C13.9255 8.10119 13.3469 7.54076 13.3469 6.85117C13.3469 6.74253 13.3628 6.63487 13.3936 6.52937C13.3173 6.52292 13.2419 6.51978 13.1677 6.51978C11.5947 6.51978 10.7255 7.84008 10.7255 8.75324C10.7255 9.81358 11.5375 10.4966 12.3229 11.1572C13.0384 11.7593 13.2367 12.3847 13.2684 13.2863C12.4024 13.2575 11.7421 13.0604 11.1442 12.3422C10.487 11.5526 9.80749 10.7363 8.75294 10.7363C7.84461 10.7363 6.53131 11.6111 6.53131 13.1916C6.53131 13.2661 6.53444 13.3419 6.54085 13.4196C6.6458 13.3887 6.75288 13.3726 6.86095 13.3726C7.54672 13.3726 8.10435 13.9556 8.10435 14.6695C8.10435 15.3845 7.54705 15.9666 6.86112 15.9666Z" fill="white"/>
<path d="M12.8516 32.9861C13.248 33.4859 13.5979 33.813 14.38 34.0038C15.0118 34.1573 15.7229 33.7652 15.8789 33.1055C15.9657 32.7401 15.8853 32.3756 15.6892 32.0964C15.6892 32.0964 15.1476 32.1135 14.3781 32.3554C13.6074 32.5973 12.8516 32.9861 12.8516 32.9861Z" fill="white"/>
<path d="M51.2589 26.4199C51.2589 35.921 47.0211 44.2807 39.0058 50.5956C33.0254 55.3067 27.1087 57.2077 26.8595 57.2856L26.3708 57.4401L25.8821 57.2856C25.6331 57.2079 19.7152 55.3068 13.7359 50.5956C5.71954 44.2807 1.48289 35.9208 1.48289 26.4199V1.4908H51.2589V26.4199ZM0 0V26.4199C0 36.3951 4.43388 45.161 12.8213 51.7688C19.0115 56.6461 25.1784 58.6259 25.437 58.7081L26.3708 59.0002L27.3037 58.7081C27.5634 58.6261 33.7292 56.6461 39.9194 51.7688C48.308 45.1608 52.7418 36.3951 52.7418 26.4199V0H0Z" fill="white"/>
</g>
<defs>
<clipPath id="clip0_165_8">
<rect width="370" height="59" fill="white"/>
</clipPath>
</defs>
</svg>
