<svg width="83" height="73" viewBox="0 0 83 73" fill="none" xmlns="http://www.w3.org/2000/svg">
<path fill-rule="evenodd" clip-rule="evenodd" d="M72.5455 5.18182H10.3636C8.98933 5.18182 7.67132 5.72776 6.69954 6.69954C5.72776 7.67132 5.18182 8.98933 5.18182 10.3636V62.1818C5.18182 63.5561 5.72776 64.8741 6.69954 65.8459C7.67132 66.8177 8.98933 67.3636 10.3636 67.3636H72.5455C73.9198 67.3636 75.2378 66.8177 76.2095 65.8459C77.1813 64.8741 77.7273 63.5561 77.7273 62.1818V10.3636C77.7273 8.98933 77.1813 7.67132 76.2095 6.69954C75.2378 5.72776 73.9198 5.18182 72.5455 5.18182V5.18182ZM10.3636 0C7.61503 0 4.979 1.09188 3.03544 3.03544C1.09188 4.979 0 7.61503 0 10.3636V62.1818C0 64.9304 1.09188 67.5665 3.03544 69.51C4.979 71.4536 7.61503 72.5455 10.3636 72.5455H72.5455C73.9064 72.5455 75.2541 72.2774 76.5114 71.7566C77.7688 71.2358 78.9113 70.4724 79.8737 69.51C80.836 68.5477 81.5994 67.4052 82.1202 66.1478C82.641 64.8904 82.9091 63.5428 82.9091 62.1818V10.3636C82.9091 7.61503 81.8172 4.979 79.8737 3.03544C77.9301 1.09188 75.2941 0 72.5455 0H10.3636V0Z" fill="white"/>
<path d="M57.7512 36.0054L33.6882 49.8981L33.6882 22.1126L57.7512 36.0054Z" fill="white"/>
</svg>
